<svg width="245" height="215" viewBox="0 0 245 215" fill="none" xmlns="http://www.w3.org/2000/svg">
<path d="M127.014 214.427C184.639 214.427 231.354 167.844 231.354 110.38C231.354 52.9164 184.639 6.33289 127.014 6.33289C69.3883 6.33289 22.6736 52.9164 22.6736 110.38C22.6736 167.844 69.3883 214.427 127.014 214.427Z" fill="#2A2E38"/>
<path d="M227.365 75.6279V174.651C227.365 175.069 227.365 175.279 227.365 175.698C227.155 181.35 224.426 186.374 220.437 189.724C216.868 192.864 212.249 194.748 207.211 194.748H47.4465C43.8775 194.748 40.7284 193.911 37.7893 192.236C36.5296 191.608 35.27 190.771 34.2203 189.724C31.9109 187.84 30.0215 185.328 28.9718 182.397C28.132 180.303 27.5022 178.21 27.5022 175.907V75.6279C27.5022 75.6279 35.8998 68.51 47.8664 58.6705C60.2528 48.203 76.6282 34.8045 90.9041 22.8716C99.0918 15.963 98.252 16.8004 110.848 6.12351C120.506 -2.04117 134.572 -2.04117 144.229 6.12351C146.748 8.21701 149.267 10.5199 151.787 12.6134C157.035 16.8004 162.914 21.8248 169.002 26.8492C181.808 37.5261 195.874 49.2497 207.001 58.4612C218.338 67.8819 226.525 74.7905 227.365 75.6279Z" fill="#526DFF"/>
<path d="M207.001 58.4612V94.0508L172.151 114.986L161.654 121.266L139.61 134.455L129.113 140.736L124.704 143.458L120.506 140.736L110.638 134.455L89.6444 121.266L79.7772 114.986L47.4464 94.6789V58.6705C59.8329 48.203 76.2082 34.8046 90.4841 22.8716L168.582 26.8492C182.018 37.5261 196.084 49.2498 207.001 58.4612Z" fill="#465DD9"/>
<path d="M200.073 30.1989V92.5853L168.162 111.636L158.715 117.289L138.561 129.222L129.113 134.874L125.124 137.177L121.345 134.874L112.318 129.222L93.2135 117.289L84.186 111.636L54.7944 93.2134V30.1989C54.7944 23.709 60.0429 18.2659 66.761 18.2659H188.106C194.615 18.2659 200.073 23.709 200.073 30.1989Z" fill="#646E87"/>
<path d="M174.04 64.5325H84.396C82.9264 64.5325 81.6667 63.2764 81.6667 61.6016C81.6667 59.9268 82.9264 58.6707 84.396 58.6707H174.04C175.51 58.6707 176.77 59.9268 176.77 61.6016C176.77 63.2764 175.51 64.5325 174.04 64.5325Z" fill="#2B313A"/>
<path d="M174.04 82.1179H84.396C82.9264 82.1179 81.6667 80.8618 81.6667 79.187C81.6667 77.5122 82.9264 76.2561 84.396 76.2561H174.04C175.51 76.2561 176.77 77.5122 176.77 79.187C176.77 80.8618 175.51 82.1179 174.04 82.1179Z" fill="#2B313A"/>
<path d="M174.04 99.7034H84.396C82.9264 99.7034 81.6667 98.4473 81.6667 96.7725C81.6667 95.0977 82.9264 93.8416 84.396 93.8416H174.04C175.51 93.8416 176.77 95.0977 176.77 96.7725C176.77 98.4473 175.51 99.7034 174.04 99.7034Z" fill="#2B313A"/>
<path d="M168.162 111.636L158.715 117.289H93.2133L84.1859 111.636H84.3959H168.162Z" fill="#2B313A"/>
<path d="M138.56 129.222L129.113 135.084H121.345L112.318 129.222H138.56Z" fill="#2B313A"/>
<path d="M154.726 44.4347H103.92C102.451 44.4347 101.191 43.1786 101.191 41.5038C101.191 39.829 102.451 38.5729 103.92 38.5729H154.726C156.195 38.5729 157.455 39.829 157.455 41.5038C157.455 43.1786 156.195 44.4347 154.726 44.4347Z" fill="url(#paint0_linear_29_988)"/>
<path opacity="0.67" d="M28.3419 75.2096L124.285 81.4901L225.896 75.2096L222.117 93.4231C222.117 93.4231 126.594 143.249 127.224 143.249C127.854 143.249 28.5519 84.2117 28.5519 84.2117L28.3419 75.2096Z" fill="url(#paint1_linear_29_988)"/>
<path d="M227.365 75.6281V175.698C227.155 181.35 224.426 186.375 220.437 189.724C216.868 192.864 212.249 194.749 207.211 194.749H47.4465C43.8775 194.749 40.7284 193.911 37.7893 192.236C36.5296 191.608 35.27 190.771 34.2203 189.724C31.9109 187.84 30.0215 185.328 28.9718 182.397C28.132 180.303 27.5022 178.21 27.5022 175.907V175.698V75.6281L116.937 131.525L124.704 136.34L127.434 134.665L129.953 133.199L227.365 75.6281Z" fill="#738DFF"/>
<path d="M220.647 189.724C217.078 192.864 212.459 194.749 207.421 194.749H47.4465C43.8775 194.749 40.7284 193.911 37.7893 192.236C36.5296 191.608 35.27 190.771 34.2203 189.724C31.9109 187.84 30.0215 185.328 28.9718 182.397C28.132 180.303 27.5022 178.21 27.5022 175.907V175.698V75.6281L37.9992 81.9086L127.434 134.874L129.953 136.34L130.163 136.549L210.36 183.862L220.647 189.724Z" fill="url(#paint2_linear_29_988)"/>
<path d="M129.953 133.2V140.108L37.7892 192.237C36.5295 191.609 35.2699 190.771 34.2202 189.724C31.9108 187.84 30.0214 185.328 28.9717 182.397L118.616 129.431L126.384 134.246L127.434 134.665L129.953 133.2Z" fill="url(#paint3_linear_29_988)"/>
<path d="M27.5022 75.6281L127.434 134.874" stroke="#A6BDFF" stroke-width="0.5" stroke-miterlimit="10"/>
<path d="M227.365 75.6281V175.698C227.155 181.35 224.426 186.375 220.437 189.724C216.868 192.864 212.249 194.749 207.211 194.749H47.4464C43.8775 194.749 40.7284 193.911 37.7892 192.236C36.5296 191.608 35.2699 190.771 34.2202 189.724L44.5073 183.653L124.704 136.34L127.434 134.665L129.953 133.199L216.868 81.6992L227.365 75.6281Z" fill="url(#paint4_linear_29_988)"/>
<path d="M227.365 75.6281L129.953 133.199L127.434 134.665L124.704 136.34L34.2202 189.724" stroke="#99B3FF" stroke-width="0.5" stroke-miterlimit="10"/>
<path d="M203.432 145.551H150.317C149.057 145.551 148.008 144.504 148.008 143.248C148.008 141.992 149.057 140.945 150.317 140.945H203.432C204.692 140.945 205.741 141.992 205.741 143.248C205.741 144.504 204.692 145.551 203.432 145.551Z" fill="url(#paint5_linear_29_988)"/>
<path d="M203.432 160.834H150.317C149.057 160.834 148.008 159.787 148.008 158.531C148.008 157.275 149.057 156.228 150.317 156.228H203.432C204.692 156.228 205.741 157.275 205.741 158.531C205.741 159.787 204.692 160.834 203.432 160.834Z" fill="url(#paint6_linear_29_988)"/>
<path d="M237.022 66.2072C241.428 66.2072 245 62.6454 245 58.2518C245 53.8582 241.428 50.2965 237.022 50.2965C232.616 50.2965 229.045 53.8582 229.045 58.2518C229.045 62.6454 232.616 66.2072 237.022 66.2072Z" fill="#2A2E39"/>
<path d="M27.2922 37.1074C30.1909 37.1074 32.5407 34.7642 32.5407 31.8737C32.5407 28.9831 30.1909 26.6399 27.2922 26.6399C24.3935 26.6399 22.0437 28.9831 22.0437 31.8737C22.0437 34.7642 24.3935 37.1074 27.2922 37.1074Z" fill="#2A2E39"/>
<path d="M3.56898 50.5059C5.54007 50.5059 7.13796 48.9125 7.13796 46.9469C7.13796 44.9813 5.54007 43.3879 3.56898 43.3879C1.59789 43.3879 0 44.9813 0 46.9469C0 48.9125 1.59789 50.5059 3.56898 50.5059Z" fill="#2A2E39"/>
<path d="M227.785 32.5017C229.64 32.5017 231.144 31.002 231.144 29.1521C231.144 27.3022 229.64 25.8025 227.785 25.8025C225.93 25.8025 224.426 27.3022 224.426 29.1521C224.426 31.002 225.93 32.5017 227.785 32.5017Z" fill="#2A2E39"/>
<path d="M241.221 141.573C243.076 141.573 244.58 140.074 244.58 138.224C244.58 136.374 243.076 134.874 241.221 134.874C239.366 134.874 237.862 136.374 237.862 138.224C237.862 140.074 239.366 141.573 241.221 141.573Z" fill="#2A2E39"/>
<path opacity="0.3" d="M216.868 81.6991V92.1666L227.365 86.9329V75.6279L216.868 81.6991ZM216.868 133.409V150.366L227.365 145.132V128.175L216.868 133.409ZM216.868 162.299V175.279C216.658 176.744 216.238 178.419 215.399 179.675C215.189 179.885 215.189 180.094 214.979 180.303L227.365 174.023V157.065L216.868 162.299ZM214.349 192.655L211.2 194.33C214.769 193.702 217.708 192.027 220.437 189.933C220.437 189.933 220.437 189.933 220.647 189.933C220.857 189.933 220.857 189.724 221.067 189.515L214.349 192.655ZM27.5022 161.671V175.698V175.907C27.5022 176.744 27.7121 177.582 27.9221 178.419L37.9992 173.185V156.228L27.5022 161.671ZM27.5022 103.472V120.429L37.9992 115.195V98.2378L27.5022 103.472ZM27.5022 75.6279V91.5386L37.9992 86.3048V81.9084L27.5022 75.6279ZM27.5022 132.571V149.529L37.9992 144.295V127.338L27.5022 132.571ZM47.4465 184.281C46.3968 184.281 45.3471 184.072 44.5073 183.862C43.8775 183.653 43.4576 183.444 42.8278 183.234C42.8278 183.234 42.8278 183.234 42.6179 183.234L32.5408 188.468C33.1706 189.096 33.5905 189.515 34.2203 190.143C35.27 191.189 36.5296 191.818 37.7893 192.655C38.629 193.283 39.6787 193.702 40.7284 193.911L60.2528 184.49H47.4465V184.281ZM86.7053 184.281L64.6616 194.748H88.5948L110.638 184.281H86.7053ZM136.671 184.281L114.627 194.748H138.56L160.604 184.281H136.671ZM186.847 184.281L164.803 194.748H184.117L206.161 184.281H186.847ZM216.868 104.309V121.266L227.365 116.033V99.0752L216.868 104.309Z" fill="#526DFF"/>
<path d="M214.349 192.655L220.857 189.305C220.647 189.515 220.647 189.515 220.437 189.724C220.437 189.724 220.437 189.724 220.227 189.724L214.349 192.655Z" fill="#526DFF"/>
<defs>
<linearGradient id="paint0_linear_29_988" x1="101.234" y1="41.5459" x2="157.316" y2="41.5459" gradientUnits="userSpaceOnUse">
<stop stop-color="#FF66A9"/>
<stop offset="1" stop-color="#F53689"/>
</linearGradient>
<linearGradient id="paint1_linear_29_988" x1="126.998" y1="164.676" x2="126.998" y2="79.715" gradientUnits="userSpaceOnUse">
<stop stop-color="#4F6AFF"/>
<stop offset="1" stop-color="#657EFF" stop-opacity="0"/>
</linearGradient>
<linearGradient id="paint2_linear_29_988" x1="29.7473" y1="135.133" x2="224.664" y2="135.133" gradientUnits="userSpaceOnUse">
<stop stop-color="#83A6FF"/>
<stop offset="1" stop-color="#5A78FF"/>
</linearGradient>
<linearGradient id="paint3_linear_29_988" x1="85.2495" y1="166.602" x2="77.4208" y2="155.144" gradientUnits="userSpaceOnUse">
<stop stop-color="#4F6AFF"/>
<stop offset="1" stop-color="#657EFF" stop-opacity="0"/>
</linearGradient>
<linearGradient id="paint4_linear_29_988" x1="219.171" y1="135.133" x2="27.9644" y2="135.133" gradientUnits="userSpaceOnUse">
<stop stop-color="#83A6FF"/>
<stop offset="1" stop-color="#5A78FF"/>
</linearGradient>
<linearGradient id="paint5_linear_29_988" x1="147.874" y1="143.258" x2="205.738" y2="143.258" gradientUnits="userSpaceOnUse">
<stop stop-color="#83A6FF"/>
<stop offset="1" stop-color="#5A78FF"/>
</linearGradient>
<linearGradient id="paint6_linear_29_988" x1="147.874" y1="158.446" x2="205.738" y2="158.446" gradientUnits="userSpaceOnUse">
<stop stop-color="#83A6FF"/>
<stop offset="1" stop-color="#5A78FF"/>
</linearGradient>
</defs>
</svg>
