<svg width="96" height="96" viewBox="0 0 96 96" fill="none" xmlns="http://www.w3.org/2000/svg">
<path d="M69.4375 14.4999C72.25 12.9375 75.5741 13.0836 78.625 14.9374C82.3069 17.1746 88.75 35.9999 79.8778 56.5477C71.6793 75.5352 57.1287 73.3124 51.6112 70.1717C40.1518 61.7681 43.8443 50.0541 45.6269 42.2871C47.4094 34.5202 56.7023 22.8609 61.4154 20.1323C63.8346 18.7317 66.9141 15.9017 69.4375 14.4999Z" fill="#E88B42"/>
<path fill-rule="evenodd" clip-rule="evenodd" d="M79.6636 13.2282L79.6636 13.2282C76.0717 11.0457 71.9787 10.8003 68.4664 12.7515C67.0543 13.536 65.5347 14.6895 64.175 15.7259L64.0702 15.8058C62.6847 16.862 61.4613 17.7947 60.4134 18.4014C57.6867 19.98 53.9849 23.8565 50.8159 28.1288C47.6288 32.4255 44.6622 37.5497 43.6776 41.8397C43.5695 42.3108 43.4517 42.8053 43.3289 43.3206C42.4772 46.8955 41.3882 51.4667 41.6567 56.1062C41.9738 61.585 44.1666 67.1923 50.4285 71.7845C50.4905 71.8299 50.5551 71.8718 50.6219 71.9098C53.77 73.7018 59.3243 75.1693 65.2538 73.5904C71.2962 71.9815 77.4154 67.2958 81.714 57.3405C86.3093 46.6979 86.9446 36.4878 85.9432 28.6234C85.4429 24.6945 84.5299 21.3169 83.4725 18.7353C82.9445 17.446 82.3673 16.323 81.7654 15.4176C81.188 14.549 80.4894 13.7299 79.6636 13.2282ZM78.6257 14.9364L78.6254 14.9369L78.6257 14.9364ZM78.6251 14.9374C75.5741 13.0836 72.2501 12.9374 69.4376 14.4999C68.1247 15.2292 66.6614 16.3451 65.2188 17.4451C63.8886 18.4595 62.576 19.4603 61.4155 20.1322C56.7024 22.8609 47.4095 34.5202 45.6269 42.2871C45.5139 42.7796 45.3932 43.288 45.2691 43.8104C43.437 51.5263 40.8785 62.301 51.6113 70.1717C57.1288 73.3124 71.6793 75.5352 79.8778 56.5477C88.75 35.9999 82.3069 17.1746 78.6251 14.9374Z" fill="#9F430C"/>
<path fill-rule="evenodd" clip-rule="evenodd" d="M72.5752 13.4837C73.8545 13.6333 75.146 14.0857 76.3891 14.841C79.8358 16.9353 85.8674 34.5584 77.5618 53.794C69.8869 71.5689 56.2656 69.4881 51.1004 66.5479C45.7336 62.6122 43.9169 57.9009 43.6503 53.2646C43.3521 59.0564 44.8243 65.1946 51.6111 70.1717C57.1286 73.3124 71.6792 75.5352 79.8777 56.5477C88.7499 35.9999 82.3068 17.1746 78.6249 14.9374C76.6518 13.7385 74.5645 13.2539 72.5752 13.4837Z" fill="#CF762F"/>
<path d="M64.75 45.875C59.4599 53.485 52.9562 56.2395 49.375 53.75C45.7938 51.2605 46.0851 41.2059 51.3751 33.5959C56.6652 25.9859 65.6688 18.8855 69.25 21.3749C72.8312 23.8644 70.04 38.265 64.75 45.875Z" fill="#FDA158"/>
<path d="M62.9941 38.5738C59.6085 43.4442 55.6479 45.3473 53.5894 43.9163C51.5309 42.4854 52.0118 36.2551 55.3974 31.3847C58.783 26.5144 64.3664 21.8458 66.4249 23.2768C68.4834 24.7077 66.3797 33.7035 62.9941 38.5738Z" fill="#FDB158"/>
<path fill-rule="evenodd" clip-rule="evenodd" d="M74.3725 17.0114C74.6423 17.4933 74.4705 18.1027 73.9886 18.3725C73.4317 18.6843 72.635 19.5458 71.9189 20.6946C71.2128 21.8274 70.7182 23.026 70.618 23.8682C70.1341 27.9329 68.6576 31.0202 66.0057 32.1122C64.9307 32.5548 64.1435 33.3992 63.573 34.3496C63.0022 35.3004 62.6863 36.2961 62.5343 36.9231C62.4042 37.4598 61.8636 37.7895 61.3269 37.6593C60.7901 37.5292 60.4605 36.9886 60.5906 36.4519C60.772 35.7039 61.1498 34.5004 61.8582 33.3203C62.5668 32.1398 63.6442 30.9217 65.2442 30.2628C66.8424 29.6047 68.1698 27.514 68.632 23.6318C68.7817 22.374 69.4434 20.8851 70.2217 19.6366C70.9899 18.4042 72.0058 17.1906 73.0114 16.6275C73.4933 16.3576 74.1026 16.5295 74.3725 17.0114Z" fill="#C55D22"/>
<path fill-rule="evenodd" clip-rule="evenodd" d="M67.1077 35.0183C67.6509 35.1183 68.0102 35.6397 67.9102 36.1828C67.7579 37.0105 67.3827 38.1644 66.7994 39.3057C66.2181 40.4431 65.3894 41.6481 64.2874 42.5003C62.3664 43.986 61.7488 46.2286 61.7298 47.5726C61.717 48.4728 61.4472 50.26 60.8412 51.9242C60.5364 52.7615 60.1291 53.6168 59.5901 54.3258C59.0526 55.0328 58.331 55.6619 57.3881 55.9056C56.8534 56.0438 56.3079 55.7224 56.1697 55.1877C56.0315 54.653 56.353 54.1075 56.8877 53.9693C57.2461 53.8766 57.6215 53.6106 57.998 53.1154C58.373 52.6221 58.6969 51.9679 58.9619 51.2399C59.4958 49.7737 59.7206 48.2077 59.73 47.5443C59.7552 45.7612 60.5408 42.8695 63.0639 40.9182C63.8488 40.3112 64.5126 39.3855 65.0185 38.3955C65.5225 37.4094 65.8294 36.4392 65.9432 35.8208C66.0432 35.2777 66.5645 34.9184 67.1077 35.0183Z" fill="#C55D22"/>
<path fill-rule="evenodd" clip-rule="evenodd" d="M77.4321 20.0825C77.8008 20.4937 77.7663 21.1259 77.3551 21.4946C77.3552 21.4945 77.3551 21.4946 77.3548 21.4948C77.3515 21.4982 77.3191 21.5309 77.2617 21.6124C77.2034 21.6952 77.1341 21.807 77.0576 21.948C76.9043 22.2301 76.7397 22.5963 76.5885 23.0131C76.2817 23.8588 76.0625 24.8219 76.0625 25.625C76.0625 28.4013 75.5791 31.7345 73.1039 33.6096C72.4107 34.1348 72.0942 34.9815 71.93 36.3102C71.8651 36.8352 71.8287 37.3849 71.7891 37.9825C71.779 38.1364 71.7686 38.2934 71.7574 38.454C71.7043 39.2198 71.635 40.0441 71.4836 40.8682C71.219 42.3089 70.395 43.7916 69.4722 45.0434C68.5398 46.3081 67.4324 47.4369 66.4857 48.1669C66.0483 48.5042 65.4204 48.423 65.0831 47.9856C64.7459 47.5483 64.8271 46.9203 65.2644 46.5831C66.0469 45.9798 67.0269 44.9898 67.8623 43.8566C68.7072 42.7105 69.3311 41.5161 69.5165 40.5069C69.6464 39.7996 69.7099 39.0693 69.7622 38.3155C69.7722 38.1716 69.7818 38.0257 69.7915 37.8786C69.8314 37.275 69.8725 36.6522 69.9451 36.0648C70.1246 34.6123 70.5269 33.0528 71.8962 32.0154C73.546 30.7655 74.0625 28.3488 74.0625 25.625C74.0625 24.5118 74.3539 23.3082 74.7085 22.3309C74.888 21.8362 75.0918 21.3768 75.3 20.9936C75.4942 20.6358 75.7373 20.2589 76.02 20.0054C76.4312 19.6368 77.0634 19.6712 77.4321 20.0825Z" fill="#C55D22"/>
<path fill-rule="evenodd" clip-rule="evenodd" d="M81.0853 23.6368C81.4846 24.0183 81.499 24.6513 81.1174 25.0506C81.1178 25.0502 81.1092 25.0593 81.0935 25.0827C81.078 25.1059 81.0582 25.1392 81.0353 25.1848C80.9886 25.2775 80.9377 25.4038 80.8862 25.567C80.7826 25.8951 80.6939 26.3178 80.6243 26.8074C80.4853 27.785 80.436 28.9335 80.4584 29.9223C80.4829 30.9965 80.4448 32.0317 80.0367 33.216C79.6338 34.3851 78.8961 35.6278 77.6384 37.1944C76.3464 38.8037 76.2573 40.4277 76.1124 43.0703C76.1018 43.2638 76.0909 43.4628 76.0792 43.6676C75.9712 45.5564 75.1529 47.7445 72.0374 50.4991C70.722 51.6621 70.0671 52.9943 69.7394 54.0394C69.5754 54.5623 69.4948 55.0096 69.4553 55.32C69.4355 55.4749 69.4262 55.5947 69.4218 55.6714C69.4196 55.7098 69.4187 55.7373 69.4182 55.753L69.4179 55.7662L69.4179 55.7649L69.4179 55.7642C69.4179 55.7653 69.4179 55.7665 69.4179 55.7676C69.4179 55.7676 69.4179 55.7675 69.4179 55.7675L69.4179 55.7678C69.4179 55.7684 69.4179 55.7683 69.4179 55.7677C69.4167 56.318 68.9707 56.7642 68.4198 56.7652C67.8675 56.7663 67.419 56.3194 67.4179 55.7671L68.4179 55.7652C67.4179 55.7671 67.4179 55.7667 67.4179 55.7662L67.4179 55.7652L67.4179 55.7631L67.418 55.7577L67.4181 55.7434C67.4182 55.7321 67.4185 55.7176 67.4189 55.6999C67.4199 55.6646 67.4217 55.6166 67.4251 55.557C67.4319 55.4379 67.4453 55.2719 67.4712 55.0676C67.5232 54.6596 67.6261 54.0943 67.831 53.441C68.241 52.1335 69.0646 50.458 70.7126 49.0008C73.5241 46.515 74.0115 44.7946 74.0824 43.5535C74.0959 43.3169 74.1081 43.0824 74.1201 42.85C74.2499 40.3421 74.3674 38.0742 76.0788 35.9423C77.2611 34.4696 77.8469 33.4316 78.1458 32.5644C78.4394 31.7123 78.4814 30.9554 78.459 29.9677C78.4346 28.8945 78.4867 27.6339 78.6442 26.526C78.7228 25.973 78.8309 25.4339 78.9789 24.9651C79.1185 24.5225 79.3277 24.0287 79.6714 23.6689C80.053 23.2696 80.686 23.2552 81.0853 23.6368Z" fill="#C55D22"/>
<path fill-rule="evenodd" clip-rule="evenodd" d="M64.9415 20.456C65.4836 20.5618 65.8373 21.0869 65.7315 21.629L64.75 21.4375C65.7315 21.629 65.7315 21.6289 65.7315 21.629L65.7307 21.6329L65.7292 21.6405L65.724 21.6665C65.7195 21.6886 65.713 21.7199 65.7045 21.7596C65.6875 21.839 65.6625 21.9522 65.6295 22.0921C65.5635 22.3714 65.4648 22.76 65.3331 23.2006C65.0755 24.0619 64.6688 25.2007 64.0923 26.1016C63.4309 27.1349 62.6369 27.7775 61.9888 28.302C61.9092 28.3664 61.8317 28.4291 61.757 28.4905C61.0743 29.0514 60.5468 29.5502 60.1731 30.4471C60.0068 30.8461 59.8479 31.3365 59.6674 31.917C59.6394 32.0068 59.611 32.0986 59.5821 32.1921C59.4287 32.6878 59.2608 33.2305 59.0703 33.7752C58.6206 35.0616 58.0043 36.4872 56.9921 37.6078C56.6219 38.0176 55.9896 38.0498 55.5797 37.6796C55.1699 37.3094 55.1377 36.6771 55.5079 36.2672C56.2458 35.4503 56.7563 34.334 57.1824 33.1151C57.3598 32.6078 57.5154 32.105 57.6689 31.6091C57.6985 31.5135 57.728 31.4181 57.7576 31.3229C57.9361 30.7492 58.12 30.1745 58.3269 29.6779C58.8907 28.3248 59.724 27.5724 60.4873 26.9452C60.5694 26.8777 60.6499 26.8122 60.7288 26.748C61.3834 26.2152 61.9296 25.7706 62.4077 25.0234C62.8312 24.3617 63.1745 23.4381 63.4169 22.6275C63.5352 22.2322 63.624 21.8825 63.683 21.6325C63.7125 21.5077 63.7344 21.4085 63.7486 21.3417C63.7558 21.3083 63.761 21.283 63.7643 21.2668L63.7679 21.2493L63.7685 21.246C63.8744 20.704 64.3995 20.3503 64.9415 20.456Z" fill="#C55D22"/>
<path fill-rule="evenodd" clip-rule="evenodd" d="M58.3561 40.7041C58.6922 41.1424 58.6093 41.7701 58.171 42.1061C57.7495 42.4292 56.5718 43.774 56.3054 45.9941C56.2315 46.6103 56.1907 47.1641 56.152 47.6896C56.1433 47.8067 56.1348 47.9224 56.126 48.0371C56.0794 48.6468 56.0247 49.2528 55.8958 49.8053C55.7632 50.3734 55.5436 50.9279 55.1408 51.4258C54.7379 51.9238 54.2023 52.303 53.5312 52.6013C52.8363 52.9101 52.3783 53.6821 52.0916 54.7558C51.9549 55.2676 51.8732 55.7893 51.8151 56.2559C51.7969 56.4016 51.7795 56.5591 51.7625 56.7133C51.7318 56.9918 51.7022 57.2597 51.6714 57.4289C51.4367 58.7197 50.6603 59.8364 50.0261 60.5791C49.699 60.9621 49.386 61.2729 49.1539 61.4889C49.0375 61.5973 48.9403 61.6828 48.8704 61.7426C48.8355 61.7726 48.8073 61.7962 48.7869 61.8131L48.7621 61.8333L48.7543 61.8397L48.7516 61.8418L48.7506 61.8427L48.7501 61.843C48.7499 61.8432 48.7497 61.8434 48.125 61.0625L48.7497 61.8434C48.3185 62.1884 47.6892 62.1184 47.3442 61.6872C46.9995 61.2564 47.0689 60.628 47.4989 60.2827C47.499 60.2827 47.4991 60.2826 47.4992 60.2826C47.4992 60.2826 47.4992 60.2825 47.4992 60.2825C47.4994 60.2824 47.4995 60.2823 47.4997 60.2821C47.4998 60.2821 47.4998 60.282 47.4999 60.282C47.4999 60.2819 47.5 60.2819 47.5 60.2819C47.5001 60.2818 47.5002 60.2817 47.5003 60.2816L47.5005 60.2815L47.5125 60.2716C47.5243 60.2619 47.5435 60.2458 47.5691 60.2239C47.6204 60.18 47.697 60.1127 47.7915 60.0248C47.9813 59.8481 48.2385 59.5926 48.5052 59.2803C49.0585 58.6323 49.5634 57.8428 49.7037 57.0711C49.7236 56.9613 49.7388 56.8204 49.7603 56.6206C49.7776 56.4597 49.799 56.2606 49.8304 56.0088C49.8935 55.5022 49.9888 54.8784 50.1593 54.2399C50.4869 53.0129 51.1638 51.4648 52.7189 50.7737C53.1728 50.5719 53.4262 50.3652 53.5859 50.1679C53.7456 49.9705 53.8619 49.7203 53.9481 49.3509C54.0379 48.9659 54.0847 48.5016 54.1319 47.8847C54.1399 47.7792 54.148 47.6698 54.1563 47.5567C54.1951 47.0294 54.2397 46.422 54.3197 45.7558C54.6532 42.9759 56.1255 41.1541 56.9541 40.5189C57.3924 40.1829 58.0201 40.2658 58.3561 40.7041Z" fill="#C55D22"/>
<path fill-rule="evenodd" clip-rule="evenodd" d="M54.5145 29.6936C55.0634 29.6326 55.5578 30.0281 55.6188 30.577C55.6629 30.9742 55.6017 31.4452 55.4997 31.8987C55.3929 32.3732 55.2227 32.9088 54.994 33.4632C54.5392 34.5655 53.8261 35.8072 52.8429 36.8211C51.0432 38.6771 50.2858 40.9368 50.6154 43.2993C50.6325 43.4219 50.6495 43.5397 50.6659 43.6532C50.8114 44.6615 50.9084 45.334 50.6091 46.0878C50.4777 46.4185 50.2705 46.7684 50.0396 47.1585C50.0215 47.1891 50.0032 47.2199 49.9848 47.251C49.7158 47.7061 49.3583 48.3147 48.8852 49.2151C48.1892 50.5396 47.8995 51.9501 47.7886 53.0503C47.7336 53.5964 47.7236 54.0555 47.7272 54.3743C47.729 54.5335 47.7341 54.6569 47.7386 54.7378C47.7408 54.7782 47.7428 54.8079 47.7442 54.8261L47.7456 54.8447C47.7456 54.8448 47.7457 54.8455 47.7457 54.8457M47.7457 54.8457C47.7964 55.3954 47.392 55.8823 46.8422 55.9332C46.2923 55.9842 45.8052 55.5797 45.7542 55.0297L46.7499 54.9375C45.7542 55.0297 45.7542 55.03 45.7542 55.0297L45.7539 55.027L45.7536 55.023L45.7526 55.0115L45.7497 54.9746C45.7474 54.944 45.7445 54.9013 45.7416 54.8474C45.7357 54.7397 45.7295 54.5871 45.7273 54.3967C45.7231 54.0163 45.735 53.4817 45.7987 52.8497C45.9253 51.5936 46.2606 49.9103 47.1147 48.2848C47.6103 47.3415 47.9872 46.7001 48.2631 46.2333C48.5553 45.739 48.6809 45.5242 48.7502 45.3497C48.8391 45.1258 48.8405 45.0514 48.6346 43.5757C48.2142 40.5632 49.2068 37.6978 51.4071 35.4288C52.1719 34.6401 52.7609 33.6318 53.1451 32.7004C53.3359 32.2379 53.4694 31.8107 53.5485 31.4595C53.6323 31.0872 53.639 30.8695 53.631 30.7979C53.5701 30.249 53.9656 29.7546 54.5145 29.6936" fill="#C55D22"/>
<path fill-rule="evenodd" clip-rule="evenodd" d="M65.0123 53.4718L65.009 53.4766L64.9941 53.4988C64.9803 53.5193 64.9592 53.5512 64.9318 53.5934C64.8768 53.6778 64.7968 53.8033 64.7 53.9623C64.5059 54.2812 64.2472 54.7302 63.9895 55.2493C63.4551 56.3258 63.0001 57.5566 63.0001 58.5312C63.0001 60.1472 62.5991 61.1874 61.8249 62.1104C61.4702 62.5331 61.0491 62.9172 60.6241 63.298C60.5744 63.3425 60.5243 63.3873 60.4739 63.4324C60.081 63.7837 59.6639 64.1566 59.2072 64.6134C58.1363 65.6842 57.5325 66.8741 57.1967 67.8026C57.0292 68.2656 56.9304 68.6581 56.8741 68.9293C56.846 69.0647 56.8287 69.1691 56.8187 69.2361C56.8137 69.2695 56.8106 69.2935 56.8089 69.3073L56.8075 69.3193L56.8076 69.3182C56.753 69.8675 56.2638 70.2681 55.7144 70.2139C55.1648 70.1597 54.7632 69.6701 54.8174 69.1205L55.8126 69.2187C54.8174 69.1205 54.8174 69.1209 54.8174 69.1205L54.8177 69.1171L54.8182 69.1126L54.8195 69.1005L54.8238 69.0636C54.8275 69.0335 54.8329 68.9926 54.8405 68.9417C54.8556 68.84 54.8795 68.6981 54.9158 68.5229C54.9885 68.1731 55.1115 67.6875 55.3159 67.1223C55.7238 65.9945 56.4638 64.5282 57.793 63.1991C58.2917 62.7004 58.7504 62.2905 59.1418 61.9406C59.1921 61.8956 59.2413 61.8516 59.2893 61.8086C59.7228 61.4201 60.0418 61.124 60.2926 60.825C60.7292 60.3045 61.0001 59.7354 61.0001 58.5312C61.0001 57.0684 61.6388 55.4867 62.1981 54.36C62.4873 53.7776 62.7755 53.2774 62.9916 52.9224C63.0999 52.7445 63.1907 52.6019 63.2554 52.5025C63.2878 52.4528 63.3137 52.4138 63.3319 52.3865L63.3536 52.3543L63.3599 52.345L63.3619 52.3421L63.3626 52.3411C63.3627 52.3409 63.3631 52.3404 64.1508 52.881L63.3626 52.3411C63.6751 51.8857 64.2981 51.7692 64.7534 52.0817C65.2086 52.3941 65.3243 53.0165 65.0123 53.4718Z" fill="#C55D22"/>
<path fill-rule="evenodd" clip-rule="evenodd" d="M56.5845 59.7189C56.9299 59.2996 56.8776 58.6791 56.4633 58.324C56.0439 57.9646 55.4126 58.0132 55.0532 58.4325C54.9677 58.5323 54.8904 58.6534 54.8421 58.7302C54.7922 58.8093 54.7348 58.9042 54.6763 59.0011C54.6675 59.0156 54.6587 59.0301 54.6499 59.0447C54.5099 59.2759 54.343 59.5493 54.1462 59.8382C53.7416 60.4323 53.264 61.0102 52.7491 61.3613C52.1666 61.7584 51.7592 62.3424 51.4711 62.9019C51.178 63.4708 50.9702 64.0894 50.8227 64.6415C50.6741 65.1976 50.5796 65.7132 50.5222 66.0883C50.4933 66.2768 50.4734 66.4319 50.4606 66.5418C50.4542 66.5967 50.4496 66.6405 50.4464 66.6715L50.4428 66.7084L50.4418 66.7194L50.4415 66.723L50.4414 66.7243C50.4414 66.7245 50.4413 66.7252 51.4375 66.8125L50.4414 66.7243C50.3932 67.2744 50.8 67.7605 51.3502 67.8087C51.9002 67.8569 52.3852 67.4502 52.4336 66.9002L52.434 66.8961L52.4363 66.873C52.4385 66.8514 52.442 66.8177 52.4472 66.7732C52.4576 66.6842 52.4743 66.553 52.4991 66.3911C52.549 66.0656 52.6302 65.6247 52.7549 65.1578C52.8807 64.6869 53.044 64.2158 53.2491 63.8176C53.459 63.41 53.6768 63.1494 53.8758 63.0137C54.705 62.4484 55.3524 61.6201 55.7992 60.9641C56.0282 60.6278 56.2187 60.3153 56.3609 60.0803C56.3702 60.0649 56.3792 60.05 56.388 60.0355C56.4482 59.936 56.4951 59.8584 56.5347 59.7955C56.569 59.741 56.5839 59.7201 56.5845 59.7189Z" fill="#C55D22"/>
<path fill-rule="evenodd" clip-rule="evenodd" d="M74.4787 53.975C74.9782 54.2106 75.1921 54.8065 74.9565 55.306L74.0521 54.8794C74.9565 55.306 74.9567 55.3058 74.9565 55.306L74.9554 55.3085L74.9535 55.3124L74.9478 55.3242L74.9286 55.3638C74.9123 55.3969 74.889 55.4435 74.8589 55.502C74.7987 55.6187 74.7111 55.7832 74.5976 55.9823C74.3711 56.3792 74.0377 56.9198 73.608 57.4967C72.7707 58.621 71.4714 60.0149 69.7778 60.6278C69.1505 60.8549 68.5024 61.1452 67.8986 61.6901C67.3006 62.2297 66.6903 63.0703 66.2358 64.4754C65.6359 66.3301 64.3544 67.449 63.2712 68.0903C62.7288 68.4114 62.2238 68.6209 61.852 68.751C61.6654 68.8163 61.5102 68.8624 61.3979 68.8929C61.3417 68.9082 61.296 68.9197 61.2623 68.9277C61.2455 68.9318 61.2316 68.935 61.2208 68.9374L61.2071 68.9404L61.202 68.9415L61.2 68.942C61.1995 68.942 61.1982 68.9423 60.9923 67.9638L61.1982 68.9423C60.6578 69.056 60.1274 68.7101 60.0137 68.1697C59.9003 67.6306 60.2442 67.1015 60.7824 66.986C60.7833 66.9858 60.7843 66.9856 60.7852 66.9854L60.7837 66.9857L60.7824 66.986L60.7966 66.9827C60.8115 66.9791 60.8375 66.9727 60.8731 66.963C60.9445 66.9436 61.0541 66.9113 61.1914 66.8633C61.4675 66.7666 61.8472 66.6091 62.2523 66.3693C63.0641 65.8886 63.9287 65.1094 64.3329 63.8599C64.8825 62.1607 65.6704 61.0069 66.5587 60.2052C67.4413 59.4088 68.3678 59.0112 69.0972 58.7472C70.2335 58.336 71.2415 57.3259 72.004 56.3021C72.3742 55.805 72.6638 55.3357 72.8604 54.9911C72.9584 54.8194 73.0324 54.6802 73.0809 54.5861C73.1051 54.539 73.1229 54.5034 73.1341 54.4806L73.1459 54.4564L73.1476 54.4528C73.1477 54.4527 73.1476 54.453 73.1476 54.4528M74.4787 53.975C73.9793 53.7395 73.3834 53.9536 73.1476 54.4528Z" fill="#C55D22"/>
<path fill-rule="evenodd" clip-rule="evenodd" d="M73.9429 61.9634C74.2047 62.4497 74.0228 63.0561 73.5365 63.318C72.36 63.9515 70.8128 65.1974 69.8626 66.8182C69.5833 67.2947 68.9707 67.4545 68.4942 67.1752C68.0177 66.8959 67.8579 66.2832 68.1372 65.8068C69.312 63.8027 71.1648 62.3235 72.5883 61.557C73.0746 61.2952 73.681 61.4771 73.9429 61.9634Z" fill="#C55D22"/>
<path fill-rule="evenodd" clip-rule="evenodd" d="M79.7297 40.8497C80.2615 40.7005 80.8135 41.0105 80.9628 41.5423C81.1567 42.2331 81.3274 43.3338 81.2342 44.4825C81.1418 45.6214 80.7758 46.9541 79.7457 47.9178C79.1244 48.499 78.7024 49.2732 78.4333 50.0449C78.1637 50.818 78.0704 51.5237 78.0623 51.8967C78.0503 52.4489 77.5929 52.8868 77.0408 52.8748C76.4886 52.8628 76.0507 52.4054 76.0627 51.8533C76.0755 51.268 76.2071 50.3549 76.5448 49.3864C76.8831 48.4164 77.4506 47.326 78.3793 46.4572C78.8992 45.9709 79.1686 45.2098 79.2408 44.3207C79.3122 43.4412 79.1766 42.5795 79.0372 42.0828C78.888 41.551 79.198 40.999 79.7297 40.8497Z" fill="#C55D22"/>
<path d="M28.6717 19.7927C26.716 18.067 22.795 17.1329 21.4814 17.6356C18.5693 18.7501 7.1583 46.4256 17.7424 67.2488C28.3266 88.0719 43.4358 86.1833 49.6675 82.636C62.61 73.1448 58.4396 59.9146 56.4264 51.1425C54.4131 42.3703 41.3267 27.702 38.5944 26.1202C35.862 24.5383 31.1164 21.9498 28.6717 19.7927Z" fill="#F8A74E"/>
<path fill-rule="evenodd" clip-rule="evenodd" d="M50.8503 84.2488C50.7883 84.2943 50.7237 84.3361 50.6569 84.3742C47.1316 86.3809 41.2436 87.8571 34.7855 86.0037C28.2618 84.1314 21.4458 78.9484 15.9596 68.155C10.3837 57.185 10.6511 44.5492 12.5883 34.6667C13.5612 29.7031 14.9703 25.3538 16.3411 22.1441C17.0246 20.5435 17.7149 19.1878 18.3589 18.1666C18.6793 17.6584 19.0126 17.1939 19.3536 16.8132C19.6512 16.481 20.1275 16.0123 20.7666 15.7677C21.5109 15.4829 22.3574 15.4726 23.0341 15.5235C23.7708 15.5789 24.5759 15.7302 25.3719 15.9517C26.923 16.3832 28.7078 17.1572 29.9951 18.293C31.9262 19.9969 35.5006 22.0425 38.2885 23.638C38.7497 23.902 39.1894 24.1536 39.5965 24.3893C40.1389 24.7033 40.7773 25.2335 41.4118 25.8134C42.0805 26.4245 42.8589 27.1975 43.7025 28.0885C45.3912 29.8719 47.3877 32.1768 49.3579 34.7059C51.3265 37.233 53.2896 40.0108 54.8979 42.7386C56.4909 45.4405 57.805 48.2083 58.3758 50.6951C58.4985 51.2299 58.632 51.7903 58.7708 52.3732C59.733 56.4138 60.953 61.5364 60.6521 66.7352C60.2979 72.8546 57.8538 79.1129 50.8503 84.2488ZM49.6675 82.636C43.4359 86.1833 28.3267 88.0719 17.7425 67.2488C7.15839 46.4256 18.5694 18.7501 21.4815 17.6356C22.7951 17.1329 26.7161 18.067 28.6718 19.7927C30.7738 21.6474 34.5769 23.8211 37.3386 25.3996C37.7889 25.6569 38.2114 25.8984 38.5945 26.1202C41.3268 27.702 54.4132 42.3703 56.4264 51.1425C56.5541 51.6987 56.6904 52.2729 56.8306 52.8629C58.8998 61.5775 61.7894 73.7467 49.6675 82.636Z" fill="#9F430C"/>
<path fill-rule="evenodd" clip-rule="evenodd" d="M25.1032 17.9561C25.6301 18.2421 26.1143 18.5729 26.5098 18.9414C28.4123 20.7141 31.8545 22.7917 34.3541 24.3005C34.7617 24.5464 35.1441 24.7773 35.4908 24.9892C37.9638 26.5012 49.8083 40.5211 51.6305 48.9056C51.746 49.4373 51.8694 49.9861 51.9962 50.55C53.8691 58.8795 56.4845 70.5108 45.513 79.0073C39.8728 82.3977 26.1974 84.2029 16.6177 64.3001C16.1464 63.3208 15.7232 62.3256 15.345 61.3184C15.9719 63.3362 16.7629 65.3218 17.7424 67.2487C28.3265 88.0719 43.4358 86.1832 49.6674 82.636C61.7892 73.7467 58.8997 61.5775 56.8304 52.8629C56.6903 52.2729 56.5539 51.6987 56.4263 51.1424C54.413 42.3702 41.3266 27.702 38.5943 26.1201C38.2113 25.8984 37.7887 25.6569 37.3385 25.3995C34.5767 23.821 30.7737 21.6474 28.6716 19.7926C27.7564 18.985 26.4106 18.3508 25.1032 17.9561Z" fill="#E38E30"/>
<path d="M42.6074 45.0809C45.5424 56.9425 43.1144 68.0839 35.3371 70.0084C27.5597 71.9328 18.3168 66.0296 16.125 52.3751C14.2199 40.5065 14.9821 27.0395 22.7595 25.1151C30.5368 23.1907 39.6724 33.2193 42.6074 45.0809Z" fill="#FFB96C"/>
<path d="M30.0345 41.9994C31.2429 48.578 30.2281 54.459 27.0019 55.0517C23.7756 55.6444 19.9473 51.9228 19.0482 44.418C18.2668 37.8949 18.5926 30.6614 21.8189 30.0687C25.0451 29.476 28.826 35.4207 30.0345 41.9994Z" fill="#FFD09C"/>
<path fill-rule="evenodd" clip-rule="evenodd" d="M22.1144 19.7231C22.3709 19.234 22.9753 19.0454 23.4644 19.3019L23 20.1875C23.4644 19.3019 23.4641 19.3017 23.4644 19.3019L23.4675 19.3035L23.4724 19.3061L23.4879 19.3144C23.5006 19.3212 23.518 19.3307 23.5401 19.3428C23.5841 19.367 23.6462 19.4018 23.7241 19.447C23.88 19.5373 24.0998 19.6696 24.3655 19.8424C24.896 20.1874 25.6153 20.6979 26.3773 21.3646C27.8851 22.684 29.6434 24.688 30.3412 27.3049C30.4298 27.637 30.5189 27.9734 30.6085 28.3113C31.0155 29.8475 31.4308 31.4148 31.8378 32.7514C32.0859 33.5662 32.3239 34.2717 32.547 34.8172C32.6585 35.0898 32.7604 35.3079 32.8511 35.4728C32.8961 35.5545 32.9348 35.6167 32.9666 35.6622C32.9822 35.6847 32.9949 35.7013 33.0045 35.7131C33.0078 35.7172 33.0107 35.7205 33.013 35.7231C33.0139 35.7242 33.0148 35.7252 33.0156 35.7261L33.0186 35.7294C33.0193 35.7301 33.0196 35.7304 33.0196 35.7304C34.1894 36.9002 35.1266 37.9282 35.8419 39.3151C36.5551 40.698 37.0136 42.3687 37.3647 44.7943C37.5369 45.9838 38.2894 47.8417 39.1917 49.7021C40.0765 51.5264 41.0403 53.2237 41.5404 54.0404C42.5891 55.7533 43.1177 57.955 43.0143 59.9883C42.9118 62.0056 42.1672 64.0619 40.4253 65.21C38.9528 66.1805 36.8057 66.0728 34.8533 65.1747C32.8505 64.2533 30.8759 62.4395 29.5927 59.6705C28.3157 56.9148 28.2508 54.8071 28.2189 52.9863L28.2173 52.8963C28.1869 51.1479 28.163 49.7741 27.2482 48.1059C26.3852 46.5321 25.5489 45.4549 24.7801 44.4646C24.6428 44.2878 24.5077 44.1138 24.375 43.9402C23.4964 42.7911 22.7157 41.6507 22.337 39.9699C21.3188 35.4518 20.6721 32.6357 18.649 30.5003C18.2692 30.0993 18.2863 29.4664 18.6873 29.0866C19.0882 28.7067 19.7211 28.7238 20.101 29.1248C22.5206 31.6789 23.2716 35.0148 24.2203 39.2293C24.2427 39.3291 24.2653 39.4294 24.288 39.5302C24.5694 40.7785 25.1324 41.6381 25.9638 42.7254C26.0865 42.8859 26.2149 43.051 26.3481 43.2225C27.1205 44.2162 28.0569 45.4212 29.0018 47.1442C30.1565 49.2498 30.1868 51.056 30.2156 52.7737C30.2166 52.833 30.2176 52.8922 30.2186 52.9512C30.2492 54.693 30.3094 56.4603 31.4073 58.8296C32.4991 61.1856 34.1362 62.6433 35.6892 63.3577C37.2926 64.0953 38.6455 63.9877 39.3247 63.5401C40.3328 62.8756 40.932 61.5569 41.0169 59.8867C41.101 58.2326 40.6609 56.4343 39.8347 55.0847C39.3027 54.2158 38.3072 52.4613 37.3922 50.5749C36.4948 48.7246 35.6071 46.6129 35.3853 45.0808C35.0489 42.7564 34.6324 41.3333 34.0644 40.2318C33.4984 39.1344 32.7481 38.2873 31.6054 37.1446C31.229 36.7683 30.9344 36.1575 30.6959 35.5742C30.4385 34.9448 30.1796 34.1716 29.9245 33.334C29.5058 31.9587 29.0786 30.3463 28.6714 28.8092C28.5828 28.4749 28.4952 28.1441 28.4088 27.8202C27.8566 25.7495 26.4274 24.0661 25.0602 22.8698C24.3847 22.2787 23.7447 21.8244 23.2751 21.519C23.0408 21.3666 22.8505 21.2523 22.7212 21.1773C22.6566 21.1399 22.6074 21.1124 22.5757 21.0949L22.5416 21.0764L22.5356 21.0731C22.0468 20.8165 21.858 20.2121 22.1144 19.7231Z" fill="#D76E21"/>
<path fill-rule="evenodd" clip-rule="evenodd" d="M32.9415 25.6738C33.4669 25.5034 34.0309 25.7912 34.2012 26.3165C34.3038 26.6327 34.4012 27.0211 34.4983 27.4087C34.5315 27.541 34.5647 27.6733 34.598 27.8026C34.7365 28.3396 34.8959 28.9039 35.1161 29.4693C35.5543 30.5944 36.2187 31.6868 37.381 32.4898C39.3533 33.8525 40.3113 35.8228 40.7785 37.3855C41.0136 38.1721 41.1308 38.8759 41.1897 39.3852C41.2192 39.6407 41.2343 39.8493 41.242 39.9975C41.2458 40.0717 41.2478 40.1309 41.2489 40.1735C41.2492 40.1875 41.2495 40.1996 41.2496 40.2099C41.2497 40.2154 41.2498 40.2204 41.2498 40.2248L41.25 40.2408L41.25 40.2462L41.25 40.2483L41.25 40.2492C41.25 40.2496 41.25 40.25 40.25 40.25H41.25C41.25 40.8023 40.8023 41.25 40.25 41.25C39.6986 41.25 39.2514 40.8036 39.25 40.2525C39.25 40.2519 39.25 40.2513 39.25 40.2507L39.25 40.2513L39.25 40.2489L39.2495 40.2229C39.2489 40.1975 39.2475 40.1564 39.2447 40.1012C39.2389 39.9906 39.2271 39.8242 39.2029 39.6148C39.1544 39.1945 39.0568 38.6092 38.8622 37.9583C38.47 36.646 37.7093 35.1475 36.2441 34.1353C34.6477 33.0323 33.7809 31.5518 33.2525 30.1951C32.9894 29.5195 32.8067 28.8657 32.6614 28.302C32.6172 28.1309 32.5778 27.9735 32.5412 27.8278C32.4511 27.4684 32.3788 27.1801 32.2988 26.9335C32.1284 26.4082 32.4162 25.8442 32.9415 25.6738Z" fill="#D76E21"/>
<path fill-rule="evenodd" clip-rule="evenodd" d="M41.0739 44.9157C41.5346 44.6113 42.155 44.738 42.4594 45.1988C43.248 46.3923 44.3824 48.2676 45.3529 50.195C46.3016 52.079 47.1744 54.1658 47.3089 55.7267C47.6121 59.2434 48.4144 62.0001 50.7072 64.2929C51.6138 65.1995 52.5917 66.6213 53.3416 68.0721C54.0775 69.4959 54.6876 71.1264 54.6876 72.4375C54.6876 72.9898 54.2399 73.4375 53.6876 73.4375C53.1353 73.4375 52.6876 72.9898 52.6876 72.4375C52.6876 71.6237 52.2665 70.3479 51.5649 68.9905C50.8773 67.6601 50.0114 66.4256 49.293 65.7072C46.5234 62.9375 45.6381 59.6317 45.3163 55.8984C45.2183 54.7619 44.5182 52.9842 43.5666 51.0945C42.637 49.2484 41.5439 47.4411 40.7908 46.3013C40.4863 45.8405 40.6131 45.2202 41.0739 44.9157Z" fill="#D76E21"/>
<path fill-rule="evenodd" clip-rule="evenodd" d="M43.375 65.875C43.9273 65.875 44.375 66.3227 44.375 66.875C44.375 67.2323 44.6702 68.8307 46.1837 70.9118C46.8312 71.8021 47.4084 72.3539 47.9756 72.8962C48.2477 73.1563 48.5175 73.4142 48.7916 73.7062C49.1925 74.1332 49.5712 74.6145 49.8412 75.2282C50.1132 75.8467 50.25 76.5424 50.25 77.375C50.25 77.9273 49.8023 78.375 49.25 78.375C48.6977 78.375 48.25 77.9273 48.25 77.375C48.25 76.7701 48.1524 76.3564 48.0104 76.0335C47.8663 75.7059 47.6513 75.4136 47.3334 75.0751C47.1706 74.9016 46.9667 74.7059 46.7351 74.4835C46.1248 73.8977 45.3215 73.1266 44.5663 72.0882C42.8798 69.7693 42.375 67.7677 42.375 66.875C42.375 66.3227 42.8227 65.875 43.375 65.875Z" fill="#D76E21"/>
<path fill-rule="evenodd" clip-rule="evenodd" d="M22.2366 24.7291C22.5934 24.3075 23.2244 24.2549 23.646 24.6116C24.6288 25.4432 25.4539 26.7926 26.0727 28.2091C26.7008 29.6472 27.1651 31.2674 27.3659 32.7399C27.7231 35.36 28.4206 37.671 30.524 40.2418C31.7034 41.6833 32.5167 42.9971 33.141 44.6843C33.7552 46.3442 34.1734 48.3322 34.6126 51.0929C35.2907 55.3553 36.8293 58.3083 37.441 59.172C37.7603 59.6227 37.6537 60.2468 37.203 60.566C36.7524 60.8853 36.1282 60.7787 35.809 60.328C35.0041 59.1917 33.3593 55.9448 32.6374 51.4071C32.2016 48.6678 31.8073 46.8433 31.2653 45.3783C30.7333 43.9405 30.0466 42.8167 28.9761 41.5083C26.5794 38.579 25.7769 35.89 25.3842 33.0101C25.21 31.7326 24.7992 30.2903 24.2399 29.0097C23.6711 27.7075 22.9963 26.6818 22.3541 26.1384C21.9325 25.7817 21.8799 25.1507 22.2366 24.7291Z" fill="#D76E21"/>
<path fill-rule="evenodd" clip-rule="evenodd" d="M45.338 37.3239C45.884 37.407 46.2593 37.917 46.1762 38.463C46.0582 39.2387 46.1454 41.2958 47.4541 42.8578C47.6293 43.0669 47.8219 43.2893 48.0263 43.5253C49.7511 45.5171 52.3126 48.475 52.3126 52.5625C52.3126 52.6645 52.3124 52.7688 52.3122 52.8751C52.3094 54.2136 52.306 55.8825 52.7246 57.4639C53.1663 59.132 54.049 60.5923 55.8475 61.4003C56.3512 61.6267 56.5761 62.2186 56.3498 62.7223C56.1235 63.2261 55.5316 63.451 55.0278 63.2247C52.5138 62.0952 51.334 60.0257 50.7913 57.9758C50.3017 56.1267 50.3078 54.2047 50.3119 52.8926C50.3123 52.7778 50.3126 52.6676 50.3126 52.5625C50.3126 49.2696 48.277 46.8954 46.522 44.8484C46.3166 44.6088 46.1151 44.3738 45.9211 44.1422C44.1298 42.0042 44.0254 39.303 44.199 38.1621C44.2821 37.6161 44.7921 37.2408 45.338 37.3239Z" fill="#D76E21"/>
<path fill-rule="evenodd" clip-rule="evenodd" d="M23.596 59.623C23.9423 59.1928 24.5718 59.1247 25.002 59.471C26.2531 60.478 27.2391 61.8777 28.1006 63.1008C28.2146 63.2626 28.3264 63.4213 28.4363 63.5756C29.4426 64.9879 30.2832 66.016 31.2825 66.4618C32.8737 67.1717 34.4439 67.5508 35.6223 67.7513C36.2094 67.8513 36.694 67.906 37.0283 67.9356C37.1953 67.9504 37.3243 67.9589 37.4095 67.9637C37.4521 67.966 37.4836 67.9675 37.5034 67.9683L37.5241 67.9691L37.5266 67.9691C37.9921 67.9817 38.3877 68.3139 38.4801 68.7702C38.4802 68.7706 38.4803 68.771 38.4804 68.7714L37.5 68.9688C38.4804 68.7714 38.4804 68.7716 38.4804 68.7714L38.4814 68.7764L38.488 68.8068C38.4942 68.8351 38.5042 68.8793 38.5181 68.9374C38.5461 69.0536 38.5897 69.2247 38.6508 69.4351C38.7735 69.8578 38.9636 70.429 39.2326 71.0279C39.7961 72.2827 40.5954 73.4111 41.6214 73.8216C43.5861 74.6074 44.5972 76.217 45.109 77.5256C45.3669 78.185 45.5096 78.7946 45.5884 79.2393C45.628 79.4627 45.652 79.6475 45.6663 79.7799C45.6734 79.8462 45.6782 79.8995 45.6812 79.9383C45.6828 79.9577 45.6839 79.9735 45.6847 79.9854L45.6856 80.0004L45.6859 80.0057L45.686 80.0078C45.6861 80.0082 45.6861 80.0095 44.6875 80.0625L43.6889 80.1156C43.6889 80.1153 43.689 80.1158 43.6889 80.1156M43.689 80.1168C43.7189 80.6677 44.1895 81.0904 44.7406 81.0611C45.2921 81.0318 45.7154 80.561 45.6861 80.0095L44.6875 80.0625C43.6889 80.1156 43.6889 80.1152 43.6889 80.1156M43.689 80.1168L43.6891 80.1179C43.6891 80.1181 43.6891 80.1184 43.689 80.1168L43.6875 80.0958C43.6858 80.075 43.6828 80.0407 43.6778 79.9944C43.6678 79.9017 43.6499 79.7622 43.6191 79.5883C43.5571 79.2384 43.4449 78.7616 43.2464 78.2541C42.8454 77.2289 42.1378 76.1822 40.8786 75.6785C39.0922 74.9639 38.0164 73.2017 37.4081 71.8472C37.0911 71.1414 36.8711 70.4782 36.7301 69.9927C36.7224 69.9661 36.7149 69.94 36.7076 69.9144C36.3405 69.8787 35.8556 69.8198 35.2867 69.723C33.9971 69.5035 32.2549 69.0857 30.4676 68.2883C28.896 67.5871 27.7678 66.0839 26.8075 64.7361C26.6913 64.573 26.5768 64.4111 26.4635 64.2508C25.5773 62.9972 24.7641 61.8468 23.748 61.029C23.3178 60.6828 23.2497 60.0533 23.596 59.623M37.5277 67.9692C37.5279 67.9692 37.5279 67.9692 37.5277 67.9692Z" fill="#D76E21"/>
<path fill-rule="evenodd" clip-rule="evenodd" d="M31.6548 70.2788C32.1222 69.9845 32.7396 70.1248 33.0339 70.5922C33.2162 70.8818 33.2941 71.218 33.3362 71.3999C33.3392 71.4127 33.342 71.4248 33.3446 71.436C33.3969 71.6581 33.4376 71.827 33.5142 72.0072C33.6466 72.3187 33.9406 72.7875 34.8713 73.3193C35.9046 73.9098 36.4965 74.5149 36.9385 75.4058C37.1401 75.8123 37.3037 76.2638 37.4698 76.7484C37.5172 76.8867 37.5652 77.0286 37.6149 77.1758C37.7448 77.5605 37.8871 77.9817 38.0649 78.4708C38.3845 79.3497 38.9967 80.0634 39.6753 80.607C40.3573 81.1534 41.0525 81.4842 41.4414 81.6138C41.9653 81.7885 42.2485 82.3548 42.0738 82.8787C41.8992 83.4027 41.3328 83.6858 40.8089 83.5112C40.1977 83.3075 39.293 82.8633 38.4249 82.168C37.5536 81.47 36.6657 80.4753 36.1853 79.1543C35.999 78.6418 35.8453 78.1868 35.7135 77.7966C35.6656 77.6548 35.6206 77.5215 35.5779 77.3971C35.4128 76.9156 35.2851 76.5734 35.1468 76.2946C34.9088 75.8148 34.6257 75.4824 33.879 75.0558C32.6221 74.3376 31.9995 73.5563 31.6736 72.7897C31.5272 72.4453 31.4532 72.1301 31.4039 71.92C31.4018 71.9112 31.3998 71.9025 31.3978 71.8941C31.3514 71.6969 31.3326 71.6464 31.334 71.6458C31.334 71.6458 31.334 71.6458 31.334 71.6458C31.0495 71.18 31.1914 70.5705 31.6548 70.2788Z" fill="#D76E21"/>
<path fill-rule="evenodd" clip-rule="evenodd" d="M16.5063 35.8306C16.9105 35.4543 17.5433 35.4769 17.9196 35.8811L17.1877 36.5625C17.9196 35.8811 17.9199 35.8814 17.9202 35.8818L17.9209 35.8825L17.9224 35.8841L17.9258 35.8878L17.9344 35.8972C17.941 35.9045 17.9491 35.9136 17.9586 35.9245C17.9778 35.9463 18.0028 35.9755 18.0328 36.0121C18.0929 36.0852 18.1731 36.1877 18.2666 36.3192C18.4534 36.5821 18.6941 36.9624 18.9322 37.4563C19.4095 38.4463 19.8752 39.8909 19.8752 41.75C19.8752 44.441 20.9797 47.15 23.0399 48.4706C23.7625 48.9339 24.2247 49.6534 24.5232 50.3849C24.8239 51.1218 24.9912 51.9494 25.0772 52.7439C25.2481 54.3223 25.1162 55.9494 24.913 56.8461C24.7909 57.3847 24.2553 57.7223 23.7167 57.6003C23.178 57.4782 22.8404 56.9426 22.9625 56.4039C23.1134 55.7381 23.2377 54.3339 23.0888 52.9592C23.015 52.2772 22.8784 51.6477 22.6714 51.1405C22.4622 50.6278 22.2129 50.3162 21.9605 50.1544C19.1457 48.35 17.8752 44.8752 17.8752 41.75C17.8752 40.2341 17.4971 39.085 17.1307 38.3249C16.947 37.9438 16.7658 37.6601 16.6362 37.4776C16.5715 37.3865 16.5199 37.3211 16.4876 37.2819C16.4715 37.2623 16.4603 37.2492 16.4547 37.2429C16.4531 37.241 16.4519 37.2397 16.4513 37.239C16.4513 37.239 16.4513 37.239 16.4513 37.239C16.4508 37.2385 16.4506 37.2383 16.4507 37.2384L16.4521 37.2399L16.4536 37.2416L16.4547 37.2427L16.4552 37.2433" fill="#D76E21"/>
<path fill-rule="evenodd" clip-rule="evenodd" d="M16.1492 47.0038C16.6994 47.0516 17.1066 47.5364 17.0588 48.0866C16.9655 49.1589 17.418 50.534 18.8533 52.3878C19.6923 53.4716 20.1236 54.4292 20.3425 55.6062C20.5191 56.5552 20.5556 57.6573 20.6011 59.0293C20.6084 59.2505 20.616 59.4786 20.6244 59.7143C20.7353 62.8193 22.506 65.0108 24.1839 66.3415C25.26 67.1949 25.8917 68.2105 26.3929 69.3573C26.6838 70.023 26.9561 70.8025 27.2459 71.6321C27.4249 72.1444 27.6105 72.6758 27.8114 73.2114C28.1588 74.1379 29.0424 75.0681 30.1495 75.8841C31.2334 76.6828 32.403 77.2784 33.1277 77.5741C33.6391 77.7827 33.8846 78.3663 33.676 78.8777C33.4674 79.3891 32.8837 79.6345 32.3723 79.4259C31.5138 79.0757 30.1959 78.4026 28.963 77.4941C27.7535 76.6027 26.4913 75.3871 25.9387 73.9136C25.6949 73.2634 25.4959 72.6913 25.3152 72.1719C25.0521 71.4154 24.8278 70.7705 24.5603 70.1583C24.1396 69.1957 23.6776 68.4926 22.9411 67.9085C20.994 66.3642 18.7648 63.6807 18.6257 59.7857C18.6169 59.5393 18.609 59.3061 18.6015 59.0847C18.5543 57.6867 18.523 56.7607 18.3763 55.972C18.2202 55.1333 17.9327 54.4659 17.2718 53.6122C15.707 51.591 14.9095 49.7161 15.0663 47.9134C15.1141 47.3632 15.599 46.9559 16.1492 47.0038Z" fill="#D76E21"/>
</svg>
