<svg width="50" height="50" viewBox="0 0 50 50" fill="none" xmlns="http://www.w3.org/2000/svg">
<path d="M30.8819 38.0671C23.409 37.768 17.575 31.9335 17.8511 25.0354C18.1273 18.1374 24.4091 12.788 31.882 13.0872C39.3549 13.3863 45.189 19.2208 44.9128 26.1189C44.6366 33.0169 38.3548 38.3663 30.8819 38.0671Z" fill="#9D5E3E"/>
<path fill-rule="evenodd" clip-rule="evenodd" d="M30.8403 39.108C22.8726 38.789 16.5081 32.5435 16.8103 24.9938C17.1126 17.444 23.956 11.7273 31.9237 12.0463C39.8914 12.3653 46.2559 18.6108 45.9536 26.1606C45.6514 33.7103 38.8079 39.427 30.8403 39.108ZM17.8512 25.0354C17.575 31.9335 23.4091 37.768 30.8819 38.0672C38.3548 38.3663 44.6366 33.0169 44.9128 26.1189C45.189 19.2208 39.3549 13.3863 31.882 13.0872C24.4092 12.788 18.1273 18.1374 17.8512 25.0354Z" fill="#682F0F"/>
<path d="M30.9115 30.7686C26.0103 32.4381 20.8349 30.2619 19.3519 25.9081C17.8689 21.5543 20.6398 16.6714 25.541 15.002C30.4421 13.3325 35.6175 15.5087 37.1005 19.8625C38.5836 24.2163 35.8126 29.0992 30.9115 30.7686Z" fill="#B77652"/>
<path d="M31.7556 16.4888C32.3296 18.1165 30.8156 20.1339 28.3741 20.9947C25.9326 21.8556 23.4881 21.234 22.9142 19.6063C22.3402 17.9786 23.8542 15.9613 26.2957 15.1004C28.7373 14.2395 31.1817 14.8612 31.7556 16.4888Z" fill="#D58E68"/>
<path fill-rule="evenodd" clip-rule="evenodd" d="M28.2746 15.9491C28.3457 16.3747 28.0584 16.7773 27.6329 16.8485C27.1646 16.9268 26.7549 17.0907 26.3934 17.337C26.0368 17.5799 25.5508 17.4878 25.3079 17.1312C25.0649 16.7746 25.1571 16.2886 25.5136 16.0457C26.0709 15.6661 26.6948 15.4211 27.3752 15.3074C27.8008 15.2362 28.2035 15.5235 28.2746 15.9491Z" fill="#E7AD8E"/>
<path d="M39.3605 29.2584C39.1355 29.634 38.6486 29.7561 38.273 29.5311C37.8975 29.3061 37.7754 28.8192 38.0004 28.4436C38.2254 28.068 38.7122 27.9459 39.0878 28.1709C39.4634 28.3959 39.5855 28.8828 39.3605 29.2584Z" fill="#753612"/>
<path d="M40.5859 31.8409C40.3609 32.2165 39.874 32.3386 39.4984 32.1136C39.1228 31.8886 39.0007 31.4017 39.2257 31.0261C39.4507 30.6505 39.9376 30.5284 40.3132 30.7534C40.6888 30.9784 40.8109 31.4653 40.5859 31.8409Z" fill="#753612"/>
<path d="M41.5699 29.4268C41.4012 29.7085 41.036 29.8001 40.7543 29.6313C40.4726 29.4626 40.3811 29.0974 40.5498 28.8157C40.7186 28.534 41.0837 28.4425 41.3654 28.6112C41.6471 28.78 41.7387 29.1451 41.5699 29.4268Z" fill="#753612"/>
<path d="M37.4564 33.736C37.2876 34.0177 36.9225 34.1093 36.6408 33.9405C36.3591 33.7718 36.2675 33.4066 36.4363 33.1249C36.605 32.8432 36.9702 32.7517 37.2519 32.9204C37.5336 33.0892 37.6251 33.4543 37.4564 33.736Z" fill="#753612"/>
<path d="M42.6414 30.8969C42.4726 31.1786 42.1075 31.2701 41.8258 31.1014C41.5441 30.9326 41.4525 30.5675 41.6213 30.2858C41.79 30.0041 42.1552 29.9125 42.4369 30.0813C42.7185 30.25 42.8101 30.6152 42.6414 30.8969Z" fill="#753612"/>
<path d="M41.366 26.75C41.1972 27.0317 40.8321 27.1233 40.5504 26.9545C40.2687 26.7858 40.1771 26.4206 40.3459 26.1389C40.5146 25.8573 40.8798 25.7657 41.1615 25.9344C41.4432 26.1032 41.5347 26.4683 41.366 26.75Z" fill="#753612"/>
<path d="M42.8419 27.591C42.6731 27.8727 42.308 27.9642 42.0263 27.7955C41.7446 27.6267 41.653 27.2616 41.8218 26.9799C41.9905 26.6982 42.3557 26.6066 42.6374 26.7754C42.919 26.9441 43.0106 27.3093 42.8419 27.591Z" fill="#753612"/>
<path d="M43.0746 25.2863C42.9498 25.4948 42.6795 25.5625 42.471 25.4376C42.2626 25.3127 42.1948 25.0425 42.3197 24.834C42.4446 24.6256 42.7148 24.5578 42.9233 24.6827C43.1318 24.8076 43.1995 25.0778 43.0746 25.2863Z" fill="#753612"/>
<path d="M33.3302 34.4891C33.2054 34.6976 32.9351 34.7654 32.7266 34.6405C32.5182 34.5156 32.4504 34.2454 32.5753 34.0369C32.7002 33.8284 32.9704 33.7607 33.1789 33.8855C33.3874 34.0104 33.4551 34.2807 33.3302 34.4891Z" fill="#753612"/>
<path d="M31.7101 36.4537C31.5853 36.6621 31.315 36.7299 31.1065 36.605C30.8981 36.4801 30.8303 36.2099 30.9552 36.0014C31.0801 35.7929 31.3503 35.7252 31.5588 35.8501C31.7673 35.975 31.835 36.2452 31.7101 36.4537Z" fill="#753612"/>
<path d="M39.9703 34.1951C39.7453 34.5707 39.2584 34.6928 38.8828 34.4678C38.5072 34.2428 38.3851 33.7559 38.6101 33.3803C38.8351 33.0048 39.322 32.8827 39.6976 33.1077C40.0732 33.3327 40.1953 33.8196 39.9703 34.1951Z" fill="#753612"/>
<path d="M37.9347 31.6386C37.7097 32.0142 37.2228 32.1363 36.8472 31.9113C36.4716 31.6863 36.3495 31.1994 36.5745 30.8238C36.7995 30.4482 37.2864 30.3262 37.662 30.5512C38.0376 30.7762 38.1597 31.263 37.9347 31.6386Z" fill="#753612"/>
<path d="M36.5777 35.4464C36.3527 35.822 35.8658 35.9441 35.4902 35.7191C35.1146 35.4941 34.9926 35.0072 35.2176 34.6316C35.4426 34.2561 35.9294 34.134 36.305 34.359C36.6806 34.584 36.8027 35.0709 36.5777 35.4464Z" fill="#753612"/>
<path d="M34.9403 32.8774C34.7645 33.1709 34.3841 33.2663 34.0906 33.0905C33.7971 32.9146 33.7017 32.5342 33.8775 32.2407C34.0533 31.9472 34.4338 31.8518 34.7273 32.0276C35.0208 32.2035 35.1161 32.5839 34.9403 32.8774Z" fill="#753612"/>
<path d="M34.0972 36.5018C33.9285 36.7835 33.5633 36.875 33.2816 36.7063C33 36.5375 32.9084 36.1724 33.0771 35.8907C33.2459 35.609 33.611 35.5174 33.8927 35.6862C34.1744 35.8549 34.266 36.2201 34.0972 36.5018Z" fill="#753612"/>
<path d="M21.0392 22.3752C16.3348 20.4824 11.1309 24.415 9.11702 26.6179C5.97537 29.5551 3.39761 38.693 6.86148 41.6302C10.3253 44.5674 20.2404 46.9574 25.0669 41.6302C31.3502 34.6952 26.9197 24.7413 21.0392 22.3752Z" fill="#9C6141"/>
<path fill-rule="evenodd" clip-rule="evenodd" d="M13.6203 22.0206C15.8984 20.9331 18.6984 20.3106 21.4279 21.4089C24.7213 22.734 27.4869 26.104 28.615 29.9996C29.7563 33.941 29.2603 38.5533 25.8388 42.3296C23.1187 45.3319 19.0446 46.08 15.3649 45.7673C11.6936 45.4553 8.12509 44.0675 6.18771 42.4247C5.06251 41.4706 4.49876 40.0749 4.28046 38.6122C4.06132 37.1439 4.17275 35.5082 4.49069 33.9196C5.11451 30.8026 6.59915 27.5668 8.37518 25.8855C9.45993 24.7067 11.3564 23.1013 13.6203 22.0206ZM9.11694 26.6179C11.1308 24.415 16.3347 20.4824 21.0391 22.3753C26.9196 24.7413 31.3501 34.6952 25.0668 41.6302C20.2403 46.9574 10.3253 44.5674 6.8614 41.6302C3.39753 38.693 5.97529 29.5551 9.11694 26.6179Z" fill="#682F0F"/>
<path d="M25.8603 37.1056C25.6845 37.3991 25.304 37.4945 25.0105 37.3186C24.717 37.1428 24.6216 36.7624 24.7975 36.4689C24.9733 36.1754 25.3537 36.08 25.6472 36.2558C25.9407 36.4316 26.0361 36.8121 25.8603 37.1056Z" fill="#753612"/>
<path d="M23.7769 41.2722C23.6011 41.5657 23.2207 41.6611 22.9272 41.4853C22.6337 41.3095 22.5383 40.9291 22.7141 40.6356C22.8899 40.3421 23.2704 40.2467 23.5639 40.4225C23.8574 40.5983 23.9528 40.9788 23.7769 41.2722Z" fill="#753612"/>
<path d="M19.0894 42.8347C18.9136 43.1282 18.5332 43.2236 18.2397 43.0478C17.9462 42.872 17.8508 42.4916 18.0266 42.1981C18.2024 41.9046 18.5829 41.8092 18.8764 41.985C19.1699 42.1608 19.2653 42.5413 19.0894 42.8347Z" fill="#753612"/>
<path d="M25.4632 39.8947C25.3379 40.1038 25.0668 40.1718 24.8577 40.0465C24.6486 39.9213 24.5807 39.6502 24.7059 39.4411C24.8312 39.232 25.1023 39.164 25.3114 39.2893C25.5205 39.4146 25.5884 39.6856 25.4632 39.8947Z" fill="#753612"/>
<path d="M23.9007 38.8531C23.7754 39.0622 23.5043 39.1301 23.2952 39.0049C23.0861 38.8796 23.0182 38.6086 23.1434 38.3994C23.2687 38.1903 23.5398 38.1224 23.7489 38.2476C23.958 38.3729 24.0259 38.644 23.9007 38.8531Z" fill="#753612"/>
<path d="M20.7757 43.0197C20.6504 43.2288 20.3793 43.2968 20.1702 43.1715C19.9611 43.0463 19.8932 42.7752 20.0184 42.5661C20.1437 42.357 20.4148 42.289 20.6239 42.4143C20.833 42.5396 20.9009 42.8106 20.7757 43.0197Z" fill="#753612"/>
<path d="M22.3382 42.4989C22.2129 42.708 21.9418 42.776 21.7327 42.6507C21.5236 42.5254 21.4557 42.2544 21.5809 42.0453C21.7062 41.8362 21.9773 41.7682 22.1864 41.8935C22.3955 42.0187 22.4634 42.2898 22.3382 42.4989Z" fill="#753612"/>
<path d="M26.0453 38.2972C25.9785 38.4086 25.834 38.4449 25.7226 38.3781C25.6111 38.3113 25.5749 38.1669 25.6417 38.0554C25.7084 37.944 25.8529 37.9078 25.9643 37.9745C26.0758 38.0413 26.112 38.1858 26.0453 38.2972Z" fill="#753612"/>
<path d="M26.0453 34.8185C25.9785 34.93 25.834 34.9662 25.7226 34.8995C25.6111 34.8327 25.5749 34.6882 25.6417 34.5768C25.7084 34.4653 25.8529 34.4291 25.9643 34.4959C26.0758 34.5626 26.112 34.7071 26.0453 34.8185Z" fill="#753612"/>
<path d="M27.5465 35.2072C27.4212 35.4163 27.1502 35.4843 26.9411 35.359C26.732 35.2338 26.664 34.9627 26.7893 34.7536C26.9145 34.5445 27.1856 34.4765 27.3947 34.6018C27.6038 34.7271 27.6718 34.9981 27.5465 35.2072Z" fill="#753612"/>
<path d="M21.0361 22.3741C16.3326 20.4856 11.1978 24.2188 9.11626 26.607C5.20826 30.7292 3.39798 38.6545 6.86116 41.585C10.3243 44.5155 17.4923 43.4572 21.5193 38.9801C25.5463 34.503 26.9154 24.7348 21.0361 22.3741Z" fill="#F5F0E0"/>
<path fill-rule="evenodd" clip-rule="evenodd" d="M13.6521 21.943C15.9325 20.8778 18.708 20.3168 21.4242 21.4074C24.9535 22.8245 26.1511 26.4205 26.0336 29.9184C25.9156 33.4314 24.4895 37.2355 22.2937 39.6767C20.1073 42.1076 17.0879 43.5948 14.1512 44.0877C11.2374 44.5767 8.23106 44.1087 6.18827 42.3802C4.02416 40.549 3.66945 37.3434 4.19886 34.3608C4.73755 31.3259 6.24449 28.1297 8.34534 25.9061C9.47059 24.62 11.3816 23.0035 13.6521 21.943ZM9.11623 26.607C11.1978 24.2188 16.3325 20.4856 21.036 22.3741C26.9154 24.7348 25.5462 34.503 21.5193 38.9801C17.4923 43.4572 10.3243 44.5155 6.86114 41.585C3.39795 38.6545 5.20823 30.7292 9.11623 26.607Z" fill="#834828"/>
<path fill-rule="evenodd" clip-rule="evenodd" d="M17.8717 40.0619C18.0389 40.2959 17.9847 40.6212 17.7506 40.7884C16.9532 41.358 15.9565 41.7471 15.0589 42.0046C14.157 42.2632 13.3174 42.3994 12.8075 42.4458C12.5211 42.4718 12.2677 42.2607 12.2417 41.9742C12.2156 41.6878 12.4267 41.4344 12.7132 41.4084C13.1582 41.3679 13.9332 41.2437 14.7717 41.0033C15.6146 40.7615 16.4842 40.4129 17.1451 39.9408C17.3792 39.7736 17.7045 39.8278 17.8717 40.0619Z" fill="#FFFDF9"/>
<path fill-rule="evenodd" clip-rule="evenodd" d="M12.8923 24.4195C12.7365 24.1778 12.8061 23.8554 13.0479 23.6996C14.471 22.7823 15.7253 22.4422 16.6771 22.3112C16.962 22.272 17.2248 22.4712 17.264 22.7562C17.3032 23.0411 17.104 23.3039 16.8191 23.3431C15.9968 23.4563 14.891 23.7509 13.6123 24.5751C13.3705 24.731 13.0482 24.6613 12.8923 24.4195Z" fill="#FFFDF9"/>
<path d="M19.2555 24.2586C15.4742 22.857 11.379 25.9925 9.80409 27.7355C7.33996 30.0662 5.41592 37.2102 8.22254 39.4424C11.0292 41.6747 16.35 40.8153 19.4986 37.2659C22.6473 33.7165 23.9821 26.0107 19.2555 24.2586Z" fill="#D2C09F"/>
<path fill-rule="evenodd" clip-rule="evenodd" d="M9.80414 27.7355C11.3791 25.9925 15.4742 22.857 19.2555 24.2586C23.9822 26.0107 22.6473 33.7165 19.4987 37.2659C19.179 37.6262 18.837 37.9589 18.4774 38.2634C19.6561 36.0763 19.8411 32.8544 17.5939 32.0214C15.4638 31.2318 13.1569 32.9981 12.2697 33.9799C10.8816 35.2929 9.79776 39.3173 11.3788 40.5747C11.4084 40.5983 11.4385 40.6212 11.469 40.6435C10.2355 40.5403 9.10483 40.1441 8.2226 39.4424C5.41597 37.2102 7.34002 30.0662 9.80414 27.7355Z" fill="#CAB794"/>
<path fill-rule="evenodd" clip-rule="evenodd" d="M9.8043 27.7355C11.3792 25.9925 15.4744 22.857 19.2557 24.2586C21.5184 25.0974 22.392 27.3005 22.3425 29.7588C22.1546 28.5887 21.6009 27.5614 20.5691 26.8341C17.4028 24.6023 12.8616 26.7209 10.9867 28.0591C9.6779 28.8464 8.23082 30.6573 7.25366 32.6568C7.77931 30.6411 8.74158 28.7407 9.8043 27.7355Z" fill="#C4AB7E"/>
</svg>
