<svg width="50" height="50" viewBox="0 0 50 50" fill="none" xmlns="http://www.w3.org/2000/svg">
<g filter="url(#filter0_d_31_1280)">
<path d="M20.8333 10.4363C22.5241 12.8892 21.7793 14.9175 21.1956 15.625C24.1424 14.8231 27.5361 15.2909 28.8647 15.625C27.3671 13.5024 28.4419 11.0849 29.1666 10.1415C27.4758 10.566 26.4895 11.8907 26.2076 12.5C26.1593 11.1321 25.3019 9.8467 24.8791 9.375C24.2028 10.5542 23.9532 11.8711 23.913 12.3821C23.14 11.5802 21.5378 10.7508 20.8333 10.4363Z" fill="#D72424"/>
<path fill-rule="evenodd" clip-rule="evenodd" d="M20.3204 16.19C20.0742 15.8088 20.1032 15.3121 20.392 14.9621C20.6905 14.6003 21.3926 13.0832 19.9755 11.0275C19.7106 10.6431 19.7337 10.1294 20.0321 9.77042C20.3306 9.41141 20.8314 9.29482 21.2578 9.48511C21.6438 9.65742 22.2563 9.96154 22.8785 10.3303C22.9972 10.4007 23.1192 10.4751 23.2423 10.5531C23.4126 10.0133 23.6505 9.42329 23.9755 8.85676C24.1418 8.56668 24.4374 8.37411 24.7699 8.33907C25.1025 8.30403 25.4316 8.43078 25.6548 8.67982C25.9304 8.9873 26.303 9.50515 26.617 10.1388C26.6399 10.1849 26.6625 10.2319 26.685 10.2798C27.2621 9.79482 28.0032 9.3596 28.9128 9.1312C29.3428 9.02324 29.794 9.19926 30.0373 9.56987C30.2806 9.94048 30.2627 10.4245 29.9926 10.776C29.7196 11.1314 29.3481 11.8182 29.2084 12.6199C29.0729 13.3976 29.1599 14.2367 29.7157 15.0245C29.9669 15.3805 29.97 15.8551 29.7235 16.2144C29.477 16.5736 29.033 16.7415 28.6105 16.6352C27.376 16.3247 24.1786 15.8928 21.469 16.6301C21.0311 16.7493 20.5665 16.5713 20.3204 16.19ZM27.0737 11.3327C26.6289 11.768 26.3402 12.2132 26.2076 12.5C26.1901 12.0044 26.0664 11.5197 25.8956 11.0806C25.793 10.8167 25.6734 10.5693 25.5497 10.3459C25.3109 9.91481 25.0566 9.57313 24.8791 9.375C24.6783 9.725 24.5152 10.0871 24.3839 10.4367C24.286 10.6976 24.2059 10.9514 24.1411 11.1881C24.0002 11.7028 23.9323 12.1359 23.9129 12.3821C23.6652 12.1252 23.3325 11.8654 22.9714 11.6207C22.813 11.5134 22.6491 11.4089 22.4846 11.3088C21.8536 10.925 21.213 10.6058 20.8332 10.4363C21.2133 10.9878 21.4704 11.5179 21.6338 12.0162C21.9411 12.9533 21.9174 13.7786 21.759 14.4242C21.6269 14.9623 21.4012 15.3757 21.1955 15.625C21.6402 15.504 22.095 15.4119 22.5514 15.3439C24.3643 15.0738 26.2016 15.1837 27.5223 15.3716C28.0724 15.4498 28.5329 15.5416 28.8646 15.625C28.59 15.2358 28.4019 14.8366 28.2822 14.4385C27.9777 13.425 28.1169 12.4179 28.4025 11.5971C28.6166 10.982 28.913 10.4716 29.1665 10.1415C28.5228 10.3031 27.9812 10.5952 27.5418 10.9286C27.3702 11.0588 27.2142 11.1952 27.0737 11.3327Z" fill="#732533"/>
<path fill-rule="evenodd" clip-rule="evenodd" d="M21.1956 15.625C21.7793 14.9175 22.5241 12.8892 20.8333 10.4363C21.1853 10.5934 21.7614 10.8791 22.3462 11.2257C23.2816 13.0746 22.8844 14.5997 22.4207 15.3641C22.0082 15.4298 21.5977 15.5156 21.1956 15.625ZM25.3767 15.1898C26.871 15.2324 28.1591 15.4475 28.8647 15.625C28.8104 15.5481 28.7595 15.4708 28.7119 15.3932C27.8053 15.2564 26.6297 15.1529 25.3767 15.1898ZM28.7431 10.8126C28.8838 10.5452 29.0313 10.3177 29.1666 10.1415C28.2509 10.3714 27.5418 10.8654 27.0394 11.3667C27.1559 11.7264 27.2355 12.1099 27.2493 12.5C27.4365 12.0953 27.9344 11.3751 28.7431 10.8126ZM25.4972 10.2529C25.2742 9.8657 25.0437 9.55867 24.8791 9.375C24.4292 10.1595 24.1681 11.0049 24.0319 11.6335C24.3857 11.8744 24.7113 12.1296 24.9546 12.3821C24.985 11.9963 25.1347 11.1513 25.4972 10.2529Z" fill="#FE3434"/>
<path d="M37.5 27.6042C37.5 34.5077 31.9036 40.1042 25 40.1042C18.0964 40.1042 12.5 34.5077 12.5 27.6042C12.5 20.7006 18.0964 15.1042 25 15.1042C31.9036 15.1042 37.5 20.7006 37.5 27.6042Z" fill="#FE3434"/>
<path fill-rule="evenodd" clip-rule="evenodd" d="M38.5416 27.6042C38.5416 35.083 32.4788 41.1458 24.9999 41.1458C17.5211 41.1458 11.4583 35.083 11.4583 27.6042C11.4583 20.1253 17.5211 14.0625 24.9999 14.0625C32.4788 14.0625 38.5416 20.1253 38.5416 27.6042ZM24.9999 40.1042C31.9035 40.1042 37.4999 34.5077 37.4999 27.6042C37.4999 20.7006 31.9035 15.1042 24.9999 15.1042C18.0964 15.1042 12.4999 20.7006 12.4999 27.6042C12.4999 34.5077 18.0964 40.1042 24.9999 40.1042Z" fill="#732533"/>
<path fill-rule="evenodd" clip-rule="evenodd" d="M25 40.1042C31.9036 40.1042 37.5 34.5077 37.5 27.6042C37.5 20.7006 31.9036 15.1042 25 15.1042C22.0385 15.1042 19.3176 16.1341 17.1758 17.8552C18.7317 16.7774 20.6202 16.1458 22.6562 16.1458C27.9777 16.1458 32.2917 20.4598 32.2917 25.7813C32.2917 31.1028 27.9777 35.4167 22.6562 35.4167C17.3348 35.4167 13.0208 31.1028 13.0208 25.7813C13.0208 24.5947 13.2353 23.4582 13.6276 22.4085C12.9036 23.9908 12.5 25.7504 12.5 27.6042C12.5 34.5077 18.0964 40.1042 25 40.1042Z" fill="#D72424"/>
<path d="M33.8008 25.5314C33.8008 26.085 33.3521 26.5338 32.7985 26.5338C32.2449 26.5338 31.7961 26.085 31.7961 25.5314C31.7961 24.9779 32.2449 24.5291 32.7985 24.5291C33.3521 24.5291 33.8008 24.9779 33.8008 25.5314Z" fill="#B42222"/>
<path d="M36.1978 26.926C36.1978 27.4796 35.749 27.9284 35.1955 27.9284C34.6419 27.9284 34.1931 27.4796 34.1931 26.926C34.1931 26.3725 34.6419 25.9237 35.1955 25.9237C35.749 25.9237 36.1978 26.3725 36.1978 26.926Z" fill="#B42222"/>
<path d="M35.6966 23.6684C35.6966 24.0836 35.36 24.4202 34.9449 24.4202C34.5297 24.4202 34.1931 24.0836 34.1931 23.6684C34.1931 23.2532 34.5297 22.9167 34.9449 22.9167C35.36 22.9167 35.6966 23.2532 35.6966 23.6684Z" fill="#B42222"/>
<path d="M35.5877 30.4342C35.5877 30.9878 35.1389 31.4366 34.5853 31.4366C34.0318 31.4366 33.583 30.9878 33.583 30.4342C33.583 29.8806 34.0318 29.4319 34.5853 29.4319C35.1389 29.4319 35.5877 29.8806 35.5877 30.4342Z" fill="#B42222"/>
<path d="M33.1907 29.0396C33.1907 29.5932 32.742 30.042 32.1884 30.042C31.6348 30.042 31.186 29.5932 31.186 29.0396C31.186 28.486 31.6348 28.0373 32.1884 28.0373C32.742 28.0373 33.1907 28.486 33.1907 29.0396Z" fill="#B42222"/>
<path d="M34.3749 33.5938C34.3749 34.3129 33.792 34.8958 33.0728 34.8958C32.3537 34.8958 31.7708 34.3129 31.7708 33.5938C31.7708 32.8746 32.3537 32.2917 33.0728 32.2917C33.792 32.2917 34.3749 32.8746 34.3749 33.5938Z" fill="#B42222"/>
<path d="M30.729 32.0312C30.729 32.4627 30.3792 32.8125 29.9478 32.8125C29.5163 32.8125 29.1665 32.4627 29.1665 32.0312C29.1665 31.5998 29.5163 31.25 29.9478 31.25C30.3792 31.25 30.729 31.5998 30.729 32.0312Z" fill="#B42222"/>
<path d="M27.9612 38.0804C27.9612 38.4173 27.688 38.6905 27.3511 38.6905C27.0141 38.6905 26.741 38.4173 26.741 38.0804C26.741 37.7434 27.0141 37.4702 27.3511 37.4702C27.688 37.4702 27.9612 37.7434 27.9612 38.0804Z" fill="#B42222"/>
<path d="M31.7708 36.4583C31.7708 37.0336 31.3045 37.5 30.7292 37.5C30.1539 37.5 29.6875 37.0336 29.6875 36.4583C29.6875 35.883 30.1539 35.4167 30.7292 35.4167C31.3045 35.4167 31.7708 35.883 31.7708 36.4583Z" fill="#B42222"/>
<path d="M29.6874 34.375C29.6874 34.6626 29.4542 34.8958 29.1666 34.8958C28.8789 34.8958 28.6458 34.6626 28.6458 34.375C28.6458 34.0874 28.8789 33.8542 29.1666 33.8542C29.4542 33.8542 29.6874 34.0874 29.6874 34.375Z" fill="#B42222"/>
<path d="M23.1535 19.6162C24.0224 21.1074 22.9135 23.3729 20.6766 24.6762C18.4398 25.9795 15.9221 25.8272 15.0532 24.336C14.1844 22.8448 15.2933 20.5794 17.5301 19.276C19.7669 17.9727 22.2846 18.125 23.1535 19.6162Z" fill="#FF7878"/>
<path fill-rule="evenodd" clip-rule="evenodd" d="M18.7931 20.9139C19.1003 21.4003 18.9549 22.0437 18.4685 22.3508C18.0974 22.5852 17.8108 22.8688 17.5944 23.2027C17.2814 23.6854 16.6364 23.8231 16.1537 23.5101C15.6709 23.1972 15.5333 22.5522 15.8462 22.0694C16.2344 21.4705 16.7426 20.9768 17.3562 20.5893C17.8426 20.2821 18.4859 20.4275 18.7931 20.9139Z" fill="white"/>
</g>
<defs>
<filter id="filter0_d_31_1280" x="0" y="0" width="54" height="54" filterUnits="userSpaceOnUse" color-interpolation-filters="sRGB">
<feFlood flood-opacity="0" result="BackgroundImageFix"/>
<feColorMatrix in="SourceAlpha" type="matrix" values="0 0 0 0 0 0 0 0 0 0 0 0 0 0 0 0 0 0 127 0" result="hardAlpha"/>
<feOffset dx="4" dy="4"/>
<feColorMatrix type="matrix" values="0 0 0 0 0 0 0 0 0 0 0 0 0 0 0 0 0 0 0.2 0"/>
<feBlend mode="normal" in2="BackgroundImageFix" result="effect1_dropShadow_31_1280"/>
<feBlend mode="normal" in="SourceGraphic" in2="effect1_dropShadow_31_1280" result="shape"/>
</filter>
</defs>
</svg>
