<svg width="50" height="50" viewBox="0 0 50 50" fill="none" xmlns="http://www.w3.org/2000/svg">
<g filter="url(#filter0_d_31_1282)">
<path d="M14.3185 13.902C22.0808 9.90609 31.7575 12.1976 35.6256 13.8428C32.7838 16.2386 29.6577 17.7005 23.4865 17.5388C18.5494 17.4094 15.3174 15.0604 14.3185 13.902Z" fill="#6AA63F"/>
<path fill-rule="evenodd" clip-rule="evenodd" d="M36.6558 13.688C36.7096 14.0459 36.5738 14.406 36.2971 14.6392C34.8057 15.8965 33.2016 16.9395 31.1381 17.6367C29.0833 18.331 26.6304 18.6632 23.4593 18.5801C18.2183 18.4428 14.7133 15.9547 13.5297 14.5823C13.3213 14.3406 13.2352 14.0167 13.296 13.7034C13.3569 13.3901 13.5581 13.122 13.8418 12.9759C17.9482 10.862 22.5168 10.4305 26.5074 10.718C30.4982 11.0055 33.9967 12.018 36.0334 12.8843C36.3664 13.0259 36.602 13.3302 36.6558 13.688ZM15.3044 13.4321C14.9728 13.578 14.644 13.7345 14.3186 13.902C14.5076 14.1212 14.7767 14.3831 15.1221 14.6645C16.6019 15.87 19.4839 17.4339 23.4866 17.5388C28.9896 17.683 32.0712 16.5362 34.6891 14.5874C35.0069 14.3507 35.318 14.1022 35.6257 13.8428C35.2947 13.702 34.9212 13.5565 34.51 13.4106C30.3171 11.9229 22.2053 10.395 15.3044 13.4321Z" fill="#33691E"/>
<path fill-rule="evenodd" clip-rule="evenodd" d="M15.2324 14.7531C16.7426 15.9452 19.5811 17.4364 23.4865 17.5388C29.6578 17.7005 32.7838 16.2386 35.6256 13.8428C34.9719 13.5648 34.1523 13.2683 33.2041 12.9868C30.7517 14.9546 27.7612 16.1889 22.4514 16.3504C19.3743 16.4441 16.9098 15.6391 15.2324 14.7531Z" fill="#51862B"/>
<path d="M10.3276 20.3097C16.3362 18.2708 23.0083 21.0032 25.5932 22.6243C23.2885 24.0472 20.8853 24.7615 16.4839 23.9614C12.9629 23.3214 10.9126 21.2603 10.3276 20.3097Z" fill="#6AA63F"/>
<path fill-rule="evenodd" clip-rule="evenodd" d="M26.6349 22.6279C26.6336 22.9878 26.4467 23.3216 26.1404 23.5106C24.9097 24.2705 23.6094 24.8666 22.0075 25.152C20.4144 25.4359 18.5836 25.4018 16.2976 24.9863C12.4727 24.291 10.1735 22.0468 9.4404 20.8557C9.27423 20.5857 9.24006 20.2548 9.34757 19.9565C9.45508 19.6583 9.69257 19.4252 9.99279 19.3233C13.2392 18.2217 16.6188 18.4216 19.4778 19.0793C22.3367 19.7371 24.7587 20.8714 26.1466 21.7418C26.4515 21.933 26.6361 22.268 26.6349 22.6279ZM11.3807 20.0015C11.028 20.0889 10.6766 20.1913 10.3275 20.3097C10.4719 20.5444 10.7056 20.8466 11.0286 21.1785C12.0142 22.1912 13.8319 23.4794 16.4839 23.9614C20.2262 24.6417 22.524 24.2272 24.5449 23.2131C24.9008 23.0345 25.2481 22.8373 25.5932 22.6243C25.2966 22.4383 24.9462 22.2376 24.5491 22.0312C21.6868 20.5435 16.4012 18.7572 11.3807 20.0015Z" fill="#33691E"/>
<path fill-rule="evenodd" clip-rule="evenodd" d="M11.8438 19.8954C11.3356 20.0026 10.8292 20.1395 10.3275 20.3098C10.9125 21.2603 12.9628 23.3214 16.4838 23.9615C19.7812 24.5609 21.9571 24.3103 23.8103 23.5486C21.9286 24.0256 19.7812 23.98 16.6927 23.0237C14.3338 22.2933 12.7515 20.9754 11.8438 19.8954Z" fill="#8BCB5C"/>
<path fill-rule="evenodd" clip-rule="evenodd" d="M33.5725 17.0796C33.7759 17.283 33.7759 17.6128 33.5725 17.8162C31.0731 20.3156 30.6175 22.5028 30.8565 24.4146C30.8921 24.7 30.6897 24.9603 30.4043 24.996C30.1188 25.0317 29.8585 24.8292 29.8228 24.5438C29.541 22.2889 30.127 19.7886 32.8359 17.0796C33.0393 16.8762 33.3691 16.8762 33.5725 17.0796Z" fill="#B36444"/>
<path fill-rule="evenodd" clip-rule="evenodd" d="M27.8855 21.6816C27.9923 21.9487 27.8624 22.2518 27.5953 22.3586C25.811 23.0723 24.7176 24.5043 24.0336 26.056C23.348 27.6114 23.0947 29.2423 22.9711 30.2704C22.9368 30.556 22.6774 30.7597 22.3918 30.7254C22.1062 30.6911 21.9026 30.4317 21.9369 30.1461C22.0639 29.0898 22.3314 27.3352 23.0805 25.6358C23.8313 23.9326 25.0866 22.2402 27.2085 21.3914C27.4755 21.2846 27.7787 21.4145 27.8855 21.6816Z" fill="#B36444"/>
<path fill-rule="evenodd" clip-rule="evenodd" d="M39.6941 7.06898C40.1047 7.20144 40.3302 7.64171 40.1978 8.05235C38.8324 12.285 35.1116 16.9589 30.6994 20.5597C26.2959 24.1534 21.0257 26.8229 16.4644 26.8229C16.0329 26.8229 15.6831 26.4731 15.6831 26.0417C15.6831 25.6102 16.0329 25.2604 16.4644 25.2604C20.4967 25.2604 25.4194 22.8519 29.7114 19.3492C33.9947 15.8536 37.4719 11.4129 38.7107 7.57265C38.8432 7.16202 39.2835 6.93652 39.6941 7.06898Z" fill="#845340"/>
<path d="M37.8415 26.6503C39.0546 30.0913 37.7296 33.6947 34.8818 34.6987C32.0341 35.7027 28.7421 33.7272 27.5289 30.2862C26.3158 26.8452 27.6408 23.2418 30.4885 22.2378C33.3363 21.2338 36.6283 23.2093 37.8415 26.6503Z" fill="#9E9E24"/>
<path fill-rule="evenodd" clip-rule="evenodd" d="M38.824 26.304C40.1642 30.1054 38.7844 34.4274 35.2283 35.6811C31.6723 36.9349 27.8869 34.4339 26.5467 30.6325C25.2064 26.8311 26.5862 22.5091 30.1423 21.2554C33.6984 20.0016 37.4838 22.5026 38.824 26.304ZM34.882 34.6987C37.7297 33.6947 39.0548 30.0913 37.8416 26.6503C36.6284 23.2093 33.3364 21.2338 30.4887 22.2378C27.641 23.2418 26.3159 26.8452 27.5291 30.2862C28.7422 33.7272 32.0343 35.7027 34.882 34.6987Z" fill="#616110"/>
<path d="M34.882 34.6987C37.7297 33.6947 39.0548 30.0913 37.8416 26.6503C36.7604 23.5837 34.0281 21.681 31.4307 22.0139C33.2182 22.6375 34.8119 24.2256 35.5776 26.3973C36.7908 29.8383 35.4657 33.4417 32.618 34.4457C32.3082 34.5549 31.9931 34.6289 31.676 34.6696C32.7207 35.034 33.8316 35.0691 34.882 34.6987Z" fill="#85851C"/>
<path d="M31.3007 26.6445C31.3701 27.9063 30.6458 28.9721 29.683 29.0251C28.7201 29.0781 27.8833 28.0981 27.8139 26.8363C27.7445 25.5745 28.4688 24.5087 29.4316 24.4557C30.3945 24.4027 31.2313 25.3827 31.3007 26.6445Z" fill="#BCBC4A"/>
<path d="M36.1671 31.7258C36.3374 32.1545 36.1279 32.6401 35.6992 32.8104C35.2705 32.9807 34.7848 32.7713 34.6145 32.3425C34.4442 31.9138 34.6537 31.4282 35.0824 31.2579C35.5111 31.0876 35.9968 31.297 36.1671 31.7258Z" fill="#6C6C09"/>
<path d="M37.0001 29.2977C37.1136 29.5835 36.974 29.9073 36.6882 30.0208C36.4023 30.1343 36.0786 29.9947 35.965 29.7089C35.8515 29.4231 35.9912 29.0993 36.277 28.9858C36.5628 28.8722 36.8865 29.0119 37.0001 29.2977Z" fill="#6C6C09"/>
<path d="M37.0036 27.7983C37.0604 27.9412 36.9905 28.1031 36.8476 28.1599C36.7047 28.2166 36.5429 28.1468 36.4861 28.0039C36.4293 27.861 36.4991 27.6991 36.642 27.6424C36.785 27.5856 36.9468 27.6554 37.0036 27.7983Z" fill="#6C6C09"/>
<path d="M36.9965 30.7971C37.0533 30.94 36.9835 31.1019 36.8406 31.1586C36.6977 31.2154 36.5358 31.1456 36.479 31.0027C36.4222 30.8598 36.4921 30.6979 36.635 30.6411C36.7779 30.5843 36.9398 30.6542 36.9965 30.7971Z" fill="#6C6C09"/>
<path d="M34.5082 33.5832C34.565 33.7261 34.4952 33.8879 34.3522 33.9447C34.2093 34.0015 34.0475 33.9317 33.9907 33.7888C33.9339 33.6458 34.0037 33.484 34.1467 33.4272C34.2896 33.3704 34.4514 33.4403 34.5082 33.5832Z" fill="#6C6C09"/>
<path d="M29.048 34.9523C29.0229 38.8281 26.4023 41.9533 23.1947 41.9325C19.987 41.9117 17.4071 38.7528 17.4323 34.877C17.4574 31.0011 20.0781 27.876 23.2857 27.8968C26.4933 27.9176 29.0732 31.0764 29.048 34.9523Z" fill="#9E9E24"/>
<path fill-rule="evenodd" clip-rule="evenodd" d="M30.0897 34.959C30.0621 39.217 27.1466 42.9998 23.1879 42.9741C19.2292 42.9485 16.363 39.1282 16.3906 34.8702C16.4182 30.6122 19.3337 26.8295 23.2924 26.8551C27.2511 26.8808 30.1173 30.7011 30.0897 34.959ZM23.1946 41.9325C26.4022 41.9533 29.0229 38.8281 29.048 34.9523C29.0731 31.0764 26.4932 27.9176 23.2856 27.8968C20.078 27.876 17.4574 31.0011 17.4323 34.877C17.4071 38.7528 19.987 41.9117 23.1946 41.9325Z" fill="#616110"/>
<path d="M21.3994 41.5782C24.5845 41.5669 27.1785 38.4539 27.2035 34.598C27.2237 31.4801 25.5582 28.8262 23.2362 27.8966C23.2526 27.8965 23.2691 27.8966 23.2855 27.8967C26.4931 27.9175 29.073 31.0763 29.0479 34.9522C29.0228 38.828 26.4021 41.9532 23.1945 41.9324C22.5672 41.9283 21.9639 41.8042 21.3994 41.5782Z" fill="#85851C"/>
<path d="M26.8553 37.7901C27.0498 38.2525 26.8326 38.785 26.3702 38.9795C25.9078 39.174 25.3753 38.9568 25.1808 38.4944C24.9863 38.032 25.2035 37.4995 25.6658 37.305C26.1282 37.1105 26.6608 37.3277 26.8553 37.7901Z" fill="#6C6C09"/>
<path d="M27.7079 35.1322C27.8376 35.4404 27.6928 35.7955 27.3845 35.9251C27.0763 36.0548 26.7213 35.91 26.5916 35.6018C26.4619 35.2935 26.6067 34.9385 26.915 34.8088C27.2232 34.6791 27.5782 34.8239 27.7079 35.1322Z" fill="#6C6C09"/>
<path d="M27.6792 33.502C27.744 33.6561 27.6716 33.8336 27.5175 33.8985C27.3633 33.9633 27.1858 33.8909 27.121 33.7368C27.0562 33.5827 27.1286 33.4052 27.2827 33.3403C27.4368 33.2755 27.6143 33.3479 27.6792 33.502Z" fill="#6C6C09"/>
<path d="M27.7367 36.7624C27.8016 36.9165 27.7292 37.094 27.575 37.1588C27.4209 37.2237 27.2434 37.1513 27.1786 36.9971C27.1137 36.843 27.1861 36.6655 27.3403 36.6007C27.4944 36.5358 27.6719 36.6082 27.7367 36.7624Z" fill="#6C6C09"/>
<path d="M25.0922 39.8456C25.157 39.9997 25.0846 40.1772 24.9305 40.242C24.7764 40.3069 24.5989 40.2345 24.534 40.0803C24.4692 39.9262 24.5416 39.7487 24.6957 39.6839C24.8498 39.619 25.0273 39.6914 25.0922 39.8456Z" fill="#6C6C09"/>
<path d="M23.0654 33.6202C22.7811 35.3429 21.4752 36.562 20.1486 36.3431C18.822 36.1242 17.9771 34.5502 18.2614 32.8274C18.5457 31.1047 19.8515 29.8856 21.1781 30.1046C22.5047 30.3235 23.3497 31.8975 23.0654 33.6202Z" fill="#D6D655"/>
<path fill-rule="evenodd" clip-rule="evenodd" d="M20.9596 31.2058C21.4046 31.5703 21.47 32.2266 21.1054 32.6717C20.9143 32.905 20.792 33.148 20.725 33.4063C20.5805 33.9632 20.012 34.2975 19.4551 34.1531C18.8983 34.0086 18.5639 33.4401 18.7084 32.8832C18.8547 32.3192 19.1209 31.8068 19.4937 31.3517C19.8582 30.9066 20.5145 30.8413 20.9596 31.2058Z" fill="white"/>
</g>
<defs>
<filter id="filter0_d_31_1282" x="0" y="0" width="54" height="54" filterUnits="userSpaceOnUse" color-interpolation-filters="sRGB">
<feFlood flood-opacity="0" result="BackgroundImageFix"/>
<feColorMatrix in="SourceAlpha" type="matrix" values="0 0 0 0 0 0 0 0 0 0 0 0 0 0 0 0 0 0 127 0" result="hardAlpha"/>
<feOffset dx="4" dy="4"/>
<feColorMatrix type="matrix" values="0 0 0 0 0 0 0 0 0 0 0 0 0 0 0 0 0 0 0.2 0"/>
<feBlend mode="normal" in2="BackgroundImageFix" result="effect1_dropShadow_31_1282"/>
<feBlend mode="normal" in="SourceGraphic" in2="effect1_dropShadow_31_1282" result="shape"/>
</filter>
</defs>
</svg>
