<svg width="50" height="50" viewBox="0 0 50 50" fill="none" xmlns="http://www.w3.org/2000/svg">
<g filter="url(#filter0_d_31_1281)">
<path d="M37.1433 25.8464C37.1433 32.7499 31.5469 38.3464 24.6433 38.3464C17.7398 38.3464 12.1433 32.7499 12.1433 25.8464C12.1433 18.9428 17.7398 13.3464 24.6433 13.3464C31.5469 13.3464 37.1433 18.9428 37.1433 25.8464Z" fill="#E6FE54"/>
<path fill-rule="evenodd" clip-rule="evenodd" d="M38.1849 25.8464C38.1849 33.3252 32.1221 39.388 24.6432 39.388C17.1644 39.388 11.1016 33.3252 11.1016 25.8464C11.1016 18.3675 17.1644 12.3047 24.6432 12.3047C32.1221 12.3047 38.1849 18.3675 38.1849 25.8464ZM24.6432 38.3464C31.5468 38.3464 37.1432 32.7499 37.1432 25.8464C37.1432 18.9428 31.5468 13.3464 24.6432 13.3464C17.7397 13.3464 12.1432 18.9428 12.1432 25.8464C12.1432 32.7499 17.7397 38.3464 24.6432 38.3464Z" fill="#7C3F29"/>
<path fill-rule="evenodd" clip-rule="evenodd" d="M24.6433 38.3464C31.5469 38.3464 37.1433 32.7499 37.1433 25.8464C37.1433 18.9428 31.5469 13.3464 24.6433 13.3464C17.7398 13.3464 12.1433 18.9428 12.1433 25.8464C12.1433 32.7499 17.7398 38.3464 24.6433 38.3464ZM24.6433 34.7005C29.5333 34.7005 33.4975 30.7364 33.4975 25.8464C33.4975 20.9563 29.5333 16.9922 24.6433 16.9922C19.7533 16.9922 15.7891 20.9563 15.7891 25.8464C15.7891 30.7364 19.7533 34.7005 24.6433 34.7005Z" fill="#C4F249"/>
<path fill-rule="evenodd" clip-rule="evenodd" d="M24.6433 38.3464C31.5469 38.3464 37.1433 32.7499 37.1433 25.8464C37.1433 18.9428 31.5469 13.3464 24.6433 13.3464C17.7398 13.3464 12.1433 18.9428 12.1433 25.8464C12.1433 32.7499 17.7398 38.3464 24.6433 38.3464ZM24.6433 36.7839C30.6839 36.7839 35.5808 31.887 35.5808 25.8464C35.5808 19.8057 30.6839 14.9089 24.6433 14.9089C18.6027 14.9089 13.7058 19.8057 13.7058 25.8464C13.7058 31.887 18.6027 36.7839 24.6433 36.7839Z" fill="#AEDE2D"/>
<path d="M29.8517 26.3672C29.8517 29.2437 27.5199 31.5755 24.6434 31.5755C21.7669 31.5755 19.4351 29.2437 19.4351 26.3672C19.4351 23.4907 21.7669 21.1589 24.6434 21.1589C27.5199 21.1589 29.8517 23.4907 29.8517 26.3672Z" fill="#F7FF98"/>
<path d="M27.7682 26.1068C27.7682 27.6888 26.4857 28.9714 24.9036 28.9714C23.3216 28.9714 22.0391 27.6888 22.0391 26.1068C22.0391 24.5247 23.3216 23.2422 24.9036 23.2422C26.4857 23.2422 27.7682 24.5247 27.7682 26.1068Z" fill="#FDFFE0"/>
<path fill-rule="evenodd" clip-rule="evenodd" d="M22.5599 35.7422C29.4635 35.7422 35.0599 30.1457 35.0599 23.2422C35.0599 20.8899 34.4102 18.6893 33.2803 16.8102C35.6607 19.0861 37.1433 22.2931 37.1433 25.8463C37.1433 32.7499 31.5468 38.3464 24.6433 38.3464C20.092 38.3464 16.1089 35.914 13.9229 32.2783C16.1672 34.4241 19.2096 35.7422 22.5599 35.7422Z" fill="#AFDE30"/>
<path d="M20.9693 16.1907C20.684 16.6155 20.1082 16.7286 19.6834 16.4432C19.2585 16.1579 19.1455 15.5821 19.4308 15.1573C19.7162 14.7324 20.2919 14.6194 20.7168 14.9047C21.1416 15.1901 21.2547 15.7658 20.9693 16.1907Z" fill="#A5D22D"/>
<path d="M24.6151 15.149C24.3297 15.5739 23.754 15.6869 23.3291 15.4016C22.9043 15.1162 22.7912 14.5405 23.0766 14.1156C23.3619 13.6908 23.9377 13.5777 24.3625 13.8631C24.7874 14.1484 24.9005 14.7242 24.6151 15.149Z" fill="#A5D22D"/>
<path d="M16.6919 20.797C16.4942 21.0913 16.0955 21.1696 15.8012 20.972C15.5069 20.7743 15.4286 20.3755 15.6263 20.0813C15.8239 19.787 16.2227 19.7087 16.5169 19.9064C16.8112 20.104 16.8895 20.5028 16.6919 20.797Z" fill="#A5D22D"/>
<path d="M17.7334 17.7199C17.5357 18.0142 17.137 18.0925 16.8427 17.8948C16.5484 17.6972 16.4701 17.2984 16.6678 17.0042C16.8654 16.7099 17.2642 16.6316 17.5584 16.8292C17.8527 17.0269 17.931 17.4256 17.7334 17.7199Z" fill="#A5D22D"/>
<path d="M19.8169 18.2407C19.6192 18.535 19.2205 18.6133 18.9262 18.4157C18.6319 18.218 18.5536 17.8193 18.7513 17.525C18.9489 17.2307 19.3477 17.1524 19.6419 17.3501C19.9362 17.5477 20.0145 17.9465 19.8169 18.2407Z" fill="#A5D22D"/>
<path d="M22.4209 16.6782C22.2232 16.9725 21.8245 17.0508 21.5302 16.8532C21.2359 16.6555 21.1576 16.2568 21.3553 15.9625C21.5529 15.6682 21.9517 15.5899 22.2459 15.7876C22.5402 15.9852 22.6185 16.384 22.4209 16.6782Z" fill="#A5D22D"/>
<path d="M26.5876 15.6366C26.39 15.9308 25.9912 16.0091 25.6969 15.8115C25.4027 15.6139 25.3244 15.2151 25.522 14.9208C25.7197 14.6266 26.1184 14.5482 26.4127 14.7459C26.7069 14.9435 26.7853 15.3423 26.5876 15.6366Z" fill="#A5D22D"/>
<path d="M33.6047 28.0901C33.4053 28.387 33.003 28.4661 32.706 28.2666C32.4091 28.0672 32.3301 27.6648 32.5295 27.3679C32.729 27.071 33.1313 26.992 33.4282 27.1914C33.7252 27.3908 33.8042 27.7932 33.6047 28.0901Z" fill="#9DC926"/>
<path d="M34.3209 30.8474C34.0355 31.2722 33.4598 31.3853 33.0349 31.1C32.6101 30.8146 32.497 30.2389 32.7824 29.814C33.0677 29.3891 33.6435 29.2761 34.0683 29.5614C34.4932 29.8468 34.6063 30.4225 34.3209 30.8474Z" fill="#9DC926"/>
<path d="M35.8084 28.1885C35.5943 28.5072 35.1625 28.592 34.8439 28.3779C34.5253 28.1639 34.4404 27.7321 34.6545 27.4135C34.8685 27.0948 35.3003 27.01 35.6189 27.2241C35.9376 27.4381 36.0224 27.8699 35.8084 28.1885Z" fill="#9DC926"/>
<path d="M32.6122 33.8677C32.3268 34.2926 31.7511 34.4057 31.3262 34.1203C30.9014 33.8349 30.7883 33.2592 31.0736 32.8344C31.359 32.4095 31.9347 32.2964 32.3596 32.5818C32.7844 32.8671 32.8975 33.4429 32.6122 33.8677Z" fill="#9DC926"/>
<path d="M31.4529 30.8968C31.2306 31.2278 30.782 31.3159 30.4509 31.0936C30.1199 30.8712 30.0318 30.4226 30.2541 30.0916C30.4765 29.7606 30.9251 29.6724 31.2561 29.8948C31.5872 30.1171 31.6753 30.5658 31.4529 30.8968Z" fill="#9DC926"/>
<path d="M29.6996 35.8368C29.4142 36.2617 28.8385 36.3748 28.4136 36.0894C27.9888 35.804 27.8757 35.2283 28.161 34.8034C28.4464 34.3786 29.0221 34.2655 29.447 34.5509C29.8719 34.8362 29.9849 35.412 29.6996 35.8368Z" fill="#9DC926"/>
<path d="M30.2678 33.3751C30.0654 33.6765 29.657 33.7567 29.3556 33.5542C29.0542 33.3518 28.974 32.9434 29.1764 32.642C29.3789 32.3407 29.7873 32.2605 30.0886 32.4629C30.39 32.6653 30.4702 33.0737 30.2678 33.3751Z" fill="#9DC926"/>
<path d="M26.627 36.3617C26.4129 36.6803 25.9811 36.7652 25.6625 36.5511C25.3439 36.3371 25.2591 35.9053 25.4731 35.5867C25.6871 35.268 26.1189 35.1832 26.4375 35.3972C26.7562 35.6113 26.841 36.0431 26.627 36.3617Z" fill="#9DC926"/>
<path d="M19.8325 25.3115C20.6274 25.3115 21.2717 25.5877 21.2717 25.9283C21.2717 26.269 20.6274 26.5451 19.8325 26.5451C19.0377 26.5451 18.3933 26.269 18.3933 25.9283C18.3933 25.5877 19.0377 25.3115 19.8325 25.3115Z" fill="#7D2B2B"/>
<path d="M25.5893 21.1996C25.5893 21.9944 25.3132 22.6388 24.9725 22.6388C24.6319 22.6388 24.3557 21.9944 24.3557 21.1996C24.3557 20.4047 24.6319 19.7604 24.9725 19.7604C25.3132 19.7604 25.5893 20.4047 25.5893 21.1996Z" fill="#7D2B2B"/>
<path d="M25.5893 30.6571C25.5893 31.452 25.3132 32.0963 24.9725 32.0963C24.6319 32.0963 24.3557 31.452 24.3557 30.6571C24.3557 29.8623 24.6319 29.2179 24.9725 29.2179C25.3132 29.2179 25.5893 29.8623 25.5893 30.6571Z" fill="#7D2B2B"/>
<path d="M28.3031 22.8896C27.7833 23.4909 27.1529 23.7978 26.8952 23.575C26.6375 23.3522 26.85 22.6842 27.3698 22.0828C27.8896 21.4815 28.5199 21.1747 28.7777 21.3975C29.0354 21.6202 28.8229 22.2883 28.3031 22.8896Z" fill="#7D2B2B"/>
<path d="M22.118 30.0442C21.5982 30.6456 20.9679 30.9524 20.7102 30.7296C20.4525 30.5069 20.665 29.8388 21.1848 29.2375C21.7046 28.6362 22.3349 28.3293 22.5926 28.5521C22.8503 28.7749 22.6378 29.4429 22.118 30.0442Z" fill="#7D2B2B"/>
<path d="M22.2722 21.9853C22.7686 22.606 22.9554 23.2817 22.6894 23.4945C22.4234 23.7072 21.8053 23.3765 21.3088 22.7558C20.8124 22.135 20.6256 21.4593 20.8916 21.2466C21.1576 21.0338 21.7757 21.3645 22.2722 21.9853Z" fill="#7D2B2B"/>
<path d="M28.1792 29.3713C28.6756 29.992 28.8624 30.6677 28.5964 30.8805C28.3303 31.0932 27.7122 30.7625 27.2158 30.1417C26.7193 29.521 26.5326 28.8453 26.7986 28.6326C27.0646 28.4198 27.6827 28.7505 28.1792 29.3713Z" fill="#7D2B2B"/>
<path d="M29.29 25.3115C30.0849 25.3115 30.7292 25.5877 30.7292 25.9283C30.7292 26.269 30.0849 26.5451 29.29 26.5451C28.4952 26.5451 27.8508 26.269 27.8508 25.9283C27.8508 25.5877 28.4952 25.3115 29.29 25.3115Z" fill="#7D2B2B"/>
</g>
<defs>
<filter id="filter0_d_31_1281" x="0" y="0" width="54" height="54" filterUnits="userSpaceOnUse" color-interpolation-filters="sRGB">
<feFlood flood-opacity="0" result="BackgroundImageFix"/>
<feColorMatrix in="SourceAlpha" type="matrix" values="0 0 0 0 0 0 0 0 0 0 0 0 0 0 0 0 0 0 127 0" result="hardAlpha"/>
<feOffset dx="4" dy="4"/>
<feColorMatrix type="matrix" values="0 0 0 0 0 0 0 0 0 0 0 0 0 0 0 0 0 0 0.2 0"/>
<feBlend mode="normal" in2="BackgroundImageFix" result="effect1_dropShadow_31_1281"/>
<feBlend mode="normal" in="SourceGraphic" in2="effect1_dropShadow_31_1281" result="shape"/>
</filter>
</defs>
</svg>
