<svg width="96" height="96" viewBox="0 0 96 96" fill="none" xmlns="http://www.w3.org/2000/svg">
<g filter="url(#filter0_d_31_1175)">
<path d="M69.262 25.2795C69.262 25.2795 69.806 33.7507 66.9544 37.8102C63.5175 42.7029 55.9059 41.7136 55.9059 41.7136C55.9059 41.7136 54.7134 35.0793 58.6868 30.1903C61.7432 26.4295 69.262 25.2795 69.262 25.2795Z" fill="#64AC1D"/>
<path fill-rule="evenodd" clip-rule="evenodd" d="M71.2578 25.1513L69.2619 25.2795L68.9596 23.3025C69.514 23.2177 70.0785 23.3696 70.5155 23.7211C70.9526 24.0727 71.2219 24.5916 71.2578 25.1513ZM67.28 25.6967C68.4629 25.4017 69.2619 25.2795 69.2619 25.2795C69.2619 25.2795 69.3132 26.0779 69.3018 27.3019C69.276 30.065 68.9306 34.997 66.9544 37.8102C63.5174 42.7029 55.9059 41.7136 55.9059 41.7136C55.9059 41.7136 54.7134 35.0793 58.6867 30.1903C60.7468 27.6555 64.8341 26.3067 67.28 25.6967ZM55.9059 41.7136C53.9374 42.0674 53.9373 42.0667 53.9371 42.066L53.9369 42.0644L53.9362 42.0607L53.9346 42.0516L53.9302 42.026C53.9268 42.0056 53.9224 41.9789 53.9173 41.9461C53.9071 41.8804 53.8938 41.79 53.8791 41.677C53.8497 41.4513 53.8145 41.1342 53.7867 40.7426C53.7311 39.9618 53.7036 38.8717 53.8139 37.611C54.0325 35.1126 54.8065 31.7936 57.1347 28.9289C59.0404 26.584 62.1527 25.2095 64.4853 24.4281C65.6988 24.0217 66.8046 23.7428 67.6072 23.5652C68.0098 23.4761 68.3394 23.4117 68.5722 23.369C68.6887 23.3477 68.7811 23.3317 68.8466 23.3207C68.8794 23.3153 68.9054 23.311 68.9244 23.308L68.9474 23.3044L68.9549 23.3032L68.9596 23.3025C68.96 23.3024 68.9596 23.3025 69.2619 25.2795C71.2578 25.1513 71.2578 25.1509 71.2578 25.1513L71.2581 25.1557L71.2586 25.1632L71.26 25.1874C71.2612 25.2076 71.2628 25.2357 71.2646 25.2714C71.2684 25.3428 71.2732 25.4447 71.2782 25.5738C71.2883 25.8318 71.2989 26.1996 71.3023 26.6515C71.3091 27.5529 71.2871 28.8017 71.1705 30.1899C70.9469 32.8536 70.3468 36.4603 68.591 38.9598C66.4199 42.0505 63.0165 43.1719 60.4499 43.5727C59.139 43.7774 57.9583 43.8094 57.1064 43.7913C56.6782 43.7822 56.3273 43.7603 56.0773 43.74C55.9522 43.7298 55.8519 43.7199 55.7795 43.7122C55.7433 43.7083 55.714 43.705 55.692 43.7023L55.6644 43.699L55.6548 43.6978L55.6511 43.6973L55.6495 43.6971C55.6488 43.697 55.6481 43.6969 55.9059 41.7136ZM53.9374 42.0674L55.9059 41.7136L55.6481 43.6969C54.7837 43.5846 54.0916 42.9253 53.9374 42.0674Z" fill="#156319"/>
<path d="M75.7228 37.391C75.7228 37.391 71.1333 46.1439 65.8393 48.4533C59.4586 51.2369 52.4892 45.6433 52.4892 45.6433C52.4892 45.6433 55.3214 38.3243 62.2332 35.8693C67.5501 33.9809 75.7228 37.391 75.7228 37.391Z" fill="#7CD623"/>
<path fill-rule="evenodd" clip-rule="evenodd" d="M77.494 38.3198L75.7227 37.391L76.4928 35.5452C77.0105 35.7612 77.4136 36.1846 77.604 36.7122C77.7943 37.2398 77.7544 37.823 77.494 38.3198ZM73.8186 36.707C74.9891 37.0849 75.7227 37.391 75.7227 37.391C75.7227 37.391 75.357 38.0885 74.7129 39.1417C73.0754 41.8193 69.6387 46.7958 65.8392 48.4533C59.4584 51.2369 52.489 45.6433 52.489 45.6433C52.489 45.6433 55.3212 38.3243 62.2331 35.8693C65.9571 34.5466 71.082 35.8233 73.8186 36.707ZM52.489 45.6433C50.6238 44.9215 50.6241 44.9209 50.6243 44.9202L50.6249 44.9186L50.6263 44.915L50.6299 44.9058L50.6404 44.8794C50.6489 44.8583 50.6602 44.8303 50.6745 44.7958C50.7031 44.7267 50.7435 44.6313 50.7961 44.5128C50.9013 44.2758 51.0556 43.9449 51.2619 43.5449C51.6733 42.7469 52.2973 41.6617 53.1582 40.4917C54.8663 38.1701 57.5976 35.3934 61.5637 33.9847C64.7862 32.8401 68.635 33.3388 71.4157 33.9719C72.8545 34.2995 74.1116 34.6884 75.0093 34.9951C75.4594 35.1489 75.8224 35.2832 76.0764 35.3804C76.2035 35.4291 76.3035 35.4686 76.3738 35.4968C76.4089 35.5109 76.4366 35.5221 76.4566 35.5303L76.4807 35.5402L76.4883 35.5433L76.4928 35.5452C76.4933 35.5454 76.4928 35.5452 75.7227 37.391C77.494 38.3198 77.4942 38.3194 77.494 38.3198L77.4918 38.3239L77.4879 38.3312L77.4752 38.3553C77.4644 38.3755 77.4493 38.4038 77.4298 38.4398C77.391 38.5119 77.3348 38.6148 77.2624 38.7449C77.1175 39.0049 76.9071 39.374 76.6387 39.8222C76.1033 40.7165 75.3305 41.9361 74.3813 43.2358C72.5493 45.7439 69.8122 48.9022 66.6388 50.2865C62.7268 51.9931 58.7658 51.0813 56.007 49.9403C54.6017 49.3592 53.4257 48.6859 52.6013 48.1594C52.1872 47.895 51.8569 47.6645 51.6254 47.4963C51.5095 47.4121 51.418 47.3432 51.3528 47.2933C51.3201 47.2683 51.294 47.248 51.2747 47.2328L51.2508 47.2139L51.2427 47.2075L51.2396 47.205L51.2383 47.204C51.2377 47.2035 51.2372 47.2031 52.489 45.6433ZM50.6238 44.9215L52.489 45.6433L51.2372 47.2031C50.5574 46.6575 50.3092 45.7345 50.6238 44.9215Z" fill="#156319"/>
<path d="M64.6295 47.438C68.889 45.9251 73.2156 39.038 73.2156 39.038C63.8132 39.8261 57.5907 44.413 55.5097 46.2152C55.5097 46.2152 60.37 48.9509 64.6295 47.438Z" fill="#6FC21C"/>
<path d="M47 60.3353C47 68.8957 40.0604 75.8353 31.5 75.8353C22.9396 75.8353 16 68.8957 16 60.3353C16 51.7749 22.9396 44.8353 31.5 44.8353C40.0604 44.8353 47 51.7749 47 60.3353Z" fill="#517BCB"/>
<path fill-rule="evenodd" clip-rule="evenodd" d="M49 60.3353C49 70.0003 41.165 77.8353 31.5 77.8353C21.835 77.8353 14 70.0003 14 60.3353C14 50.6703 21.835 42.8353 31.5 42.8353C41.165 42.8353 49 50.6703 49 60.3353ZM31.5 75.8353C40.0604 75.8353 47 68.8957 47 60.3353C47 51.7749 40.0604 44.8353 31.5 44.8353C22.9396 44.8353 16 51.7749 16 60.3353C16 68.8957 22.9396 75.8353 31.5 75.8353Z" fill="#173F8B"/>
<path d="M30 54.3353C30 57.3729 27.5376 59.8353 24.5 59.8353C21.4624 59.8353 19 57.3729 19 54.3353C19 51.2978 21.4624 48.8353 24.5 48.8353C27.5376 48.8353 30 51.2978 30 54.3353Z" fill="#73A3FE"/>
<path fill-rule="evenodd" clip-rule="evenodd" d="M25.5 73.8353C34.0604 73.8353 41 66.8957 41 58.3353C41 52.6194 37.9061 47.6261 33.3016 44.9388C41.0133 45.8315 47 52.3842 47 60.3353C47 68.8957 40.0604 75.8353 31.5 75.8353C28.6555 75.8353 25.9899 75.069 23.6985 73.7317C24.2895 73.8001 24.8907 73.8353 25.5 73.8353Z" fill="#3C64B1"/>
<path d="M56 38.3353C56 46.3435 49.5081 52.8353 41.5 52.8353C33.4919 52.8353 27 46.3435 27 38.3353C27 30.3272 33.4919 23.8353 41.5 23.8353C49.5081 23.8353 56 30.3272 56 38.3353Z" fill="#517BCB"/>
<path fill-rule="evenodd" clip-rule="evenodd" d="M58 38.3353C58 47.448 50.6127 54.8353 41.5 54.8353C32.3873 54.8353 25 47.448 25 38.3353C25 29.2226 32.3873 21.8353 41.5 21.8353C50.6127 21.8353 58 29.2226 58 38.3353ZM41.5 52.8353C49.5081 52.8353 56 46.3435 56 38.3353C56 30.3272 49.5081 23.8353 41.5 23.8353C33.4919 23.8353 27 30.3272 27 38.3353C27 46.3435 33.4919 52.8353 41.5 52.8353Z" fill="#173F8B"/>
<path fill-rule="evenodd" clip-rule="evenodd" d="M39.4999 50.8353C47.508 50.8353 53.9999 44.3435 53.9999 36.3353C53.9999 32.8406 52.7635 29.6346 50.7043 27.1309C53.9378 29.7902 55.9999 33.822 55.9999 38.3353C55.9999 46.3435 49.508 52.8353 41.4999 52.8353C36.9865 52.8353 32.9548 50.7732 30.2954 47.5398C32.7991 49.599 36.0051 50.8353 39.4999 50.8353Z" fill="#3C64B1"/>
<path d="M73 58.8353C73 66.5673 66.732 72.8353 59 72.8353C51.268 72.8353 45 66.5673 45 58.8353C45 51.1033 51.268 44.8353 59 44.8353C66.732 44.8353 73 51.1033 73 58.8353Z" fill="#517BCB"/>
<path fill-rule="evenodd" clip-rule="evenodd" d="M75 58.8353C75 67.6719 67.8366 74.8353 59 74.8353C50.1634 74.8353 43 67.6719 43 58.8353C43 49.9988 50.1634 42.8353 59 42.8353C67.8366 42.8353 75 49.9988 75 58.8353ZM59 72.8353C66.732 72.8353 73 66.5673 73 58.8353C73 51.1033 66.732 44.8353 59 44.8353C51.268 44.8353 45 51.1033 45 58.8353C45 66.5673 51.268 72.8353 59 72.8353Z" fill="#173F8B"/>
<path fill-rule="evenodd" clip-rule="evenodd" d="M56 70.8354C63.732 70.8354 70 64.5674 70 56.8354C70 52.6216 68.1384 48.8426 65.1927 46.276C69.8185 48.5612 73 53.3268 73 58.8354C73 66.5674 66.732 72.8354 59 72.8354C55.4819 72.8354 52.2668 71.5377 49.8074 69.3948C51.6744 70.3171 53.7767 70.8354 56 70.8354Z" fill="#3C64B1"/>
<path d="M68.484 62.3741C69.2718 63.1483 69.283 64.4146 68.5088 65.2025C67.7346 65.9903 66.4683 66.0014 65.6805 65.2273C64.8926 64.4531 64.8815 63.1868 65.6557 62.399C66.4298 61.6111 67.6961 61.6 68.484 62.3741Z" fill="#254B95"/>
<path d="M70.9184 57.7564C71.5093 58.337 71.5176 59.2867 70.937 59.8776C70.3564 60.4685 69.4067 60.4769 68.8158 59.8963C68.2249 59.3156 68.2165 58.3659 68.7972 57.775C69.3778 57.1841 70.3275 57.1758 70.9184 57.7564Z" fill="#254B95"/>
<path d="M67.352 54.252C67.9429 54.8327 67.9512 55.7824 67.3706 56.3733C66.79 56.9642 65.8403 56.9725 65.2494 56.3919C64.6585 55.8113 64.6501 54.8616 65.2308 54.2707C65.8114 53.6797 66.7611 53.6714 67.352 54.252Z" fill="#254B95"/>
<path d="M66.4061 67.3423C66.8 67.7294 66.8055 68.3626 66.4185 68.7565C66.0314 69.1504 65.3982 69.156 65.0043 68.7689C64.6104 68.3818 64.6048 67.7487 64.9919 67.3547C65.379 66.9608 66.0121 66.9552 66.4061 67.3423Z" fill="#254B95"/>
<path d="M60 53.3353C60 56.3729 57.5376 58.8353 54.5 58.8353C51.4624 58.8353 49 56.3729 49 53.3353C49 50.2978 51.4624 47.8353 54.5 47.8353C57.5376 47.8353 60 50.2978 60 53.3353Z" fill="#73A3FE"/>
<path d="M42 32.3353C42 35.3729 39.5376 37.8353 36.5 37.8353C33.4624 37.8353 31 35.3729 31 32.3353C31 29.2978 33.4624 26.8353 36.5 26.8353C39.5376 26.8353 42 29.2978 42 32.3353Z" fill="#73A3FE"/>
<path fill-rule="evenodd" clip-rule="evenodd" d="M35.9701 28.5928C36.1041 29.1286 35.7783 29.6715 35.2425 29.8055C34.7756 29.9222 33.7469 30.4709 33.4701 31.5779C33.3362 32.1137 32.7933 32.4394 32.2575 32.3055C31.7217 32.1715 31.3959 31.6286 31.5298 31.0928C32.0531 28.9998 33.8911 28.0818 34.7575 27.8652C35.2933 27.7312 35.8362 28.057 35.9701 28.5928Z" fill="white"/>
<path fill-rule="evenodd" clip-rule="evenodd" d="M25.4999 55.8353C25.9331 55.8353 26.3171 56.1143 26.451 56.5263L27.0123 58.2538H28.8286C29.2618 58.2538 29.6458 58.5327 29.7797 58.9448C29.9135 59.3568 29.7669 59.8081 29.4164 60.0628L27.9469 61.1304L28.5082 62.8579C28.6421 63.2699 28.4954 63.7213 28.1449 63.9759C27.7945 64.2305 27.3199 64.2305 26.9694 63.9759L25.4999 62.9083L24.0304 63.9759C23.68 64.2305 23.2054 64.2305 22.8549 63.9759C22.5044 63.7213 22.3577 63.2699 22.4916 62.8579L23.0529 61.1304L21.5834 60.0628C21.2329 59.8081 21.0863 59.3568 21.2202 58.9448C21.354 58.5327 21.738 58.2538 22.1712 58.2538H23.9876L24.5489 56.5263C24.6827 56.1143 25.0667 55.8353 25.4999 55.8353ZM25.4999 59.8723C25.3856 60.0175 25.233 60.1284 25.0596 60.1923C25.1623 60.3458 25.2206 60.5253 25.2278 60.7099C25.4056 60.6596 25.5942 60.6596 25.772 60.7099C25.7792 60.5253 25.8375 60.3458 25.9402 60.1923C25.7669 60.1284 25.6142 60.0175 25.4999 59.8723Z" fill="black"/>
<path fill-rule="evenodd" clip-rule="evenodd" d="M41.4999 31.8353C41.9331 31.8353 42.3171 32.1143 42.451 32.5263L43.0123 34.2538H44.8286C45.2618 34.2538 45.6458 34.5327 45.7797 34.9448C45.9135 35.3568 45.7669 35.8081 45.4164 36.0628L43.9469 37.1304L44.5082 38.8579C44.6421 39.2699 44.4954 39.7213 44.1449 39.9759C43.7945 40.2305 43.3199 40.2305 42.9694 39.9759L41.4999 38.9083L40.0304 39.9759C39.68 40.2305 39.2054 40.2305 38.8549 39.9759C38.5044 39.7213 38.3577 39.2699 38.4916 38.8579L39.0529 37.1304L37.5834 36.0628C37.2329 35.8081 37.0863 35.3568 37.2202 34.9448C37.354 34.5327 37.738 34.2538 38.1712 34.2538H39.9876L40.5489 32.5263C40.6827 32.1143 41.0667 31.8353 41.4999 31.8353ZM41.4999 35.8723C41.3856 36.0175 41.233 36.1284 41.0596 36.1923C41.1623 36.3458 41.2206 36.5253 41.2278 36.7099C41.4056 36.6596 41.5942 36.6596 41.772 36.7099C41.7792 36.5253 41.8375 36.3458 41.9402 36.1923C41.7669 36.1284 41.6142 36.0175 41.4999 35.8723Z" fill="black"/>
<path fill-rule="evenodd" clip-rule="evenodd" d="M63.4816 57.3871C63.9038 57.2902 64.3404 57.4763 64.5631 57.8479L65.576 59.5389L67.4972 59.0981C67.9195 59.0012 68.3561 59.1872 68.5787 59.5589C68.8013 59.9305 68.7593 60.4033 68.4746 60.7299L67.1794 62.2157L68.1924 63.9067C68.415 64.2784 68.373 64.7511 68.0883 65.0777C67.8036 65.4042 67.3411 65.5104 66.9425 65.3406L65.1291 64.5679L63.8339 66.0538C63.5492 66.3804 63.0867 66.4865 62.6881 66.3167C62.2895 66.1469 62.0457 65.7397 62.084 65.3082L62.2585 63.3448L60.4451 62.5721C60.0465 62.4023 59.8026 61.9952 59.841 61.5637C59.8793 61.1321 60.1912 60.7744 60.6134 60.6775L62.5347 60.2367L62.7091 58.2733C62.7475 57.8418 63.0593 57.484 63.4816 57.3871ZM64.4025 61.4009C64.3178 61.626 64.1543 61.8136 63.9429 61.9281C64.1308 62.0782 64.2587 62.2917 64.3023 62.5281C64.5031 62.3958 64.7456 62.3402 64.984 62.3717C64.9202 62.1399 64.9422 61.892 65.0459 61.6751C64.8057 61.6641 64.5768 61.5666 64.4025 61.4009Z" fill="black"/>
<path d="M26 59.8353C26 60.3876 25.5523 60.8353 25 60.8353C24.4477 60.8353 24 60.3876 24 59.8353C24 59.283 24.4477 58.8353 25 58.8353C25.5523 58.8353 26 59.283 26 59.8353Z" fill="#9ABDFF"/>
<path fill-rule="evenodd" clip-rule="evenodd" d="M27 59.8353C27 60.9399 26.1046 61.8353 25 61.8353C23.8954 61.8353 23 60.9399 23 59.8353C23 58.7308 23.8954 57.8353 25 57.8353C26.1046 57.8353 27 58.7308 27 59.8353ZM25 60.8353C25.5523 60.8353 26 60.3876 26 59.8353C26 59.283 25.5523 58.8353 25 58.8353C24.4477 58.8353 24 59.283 24 59.8353C24 60.3876 24.4477 60.8353 25 60.8353Z" fill="black"/>
<path d="M42 35.8353C42 36.3876 41.5523 36.8353 41 36.8353C40.4477 36.8353 40 36.3876 40 35.8353C40 35.283 40.4477 34.8353 41 34.8353C41.5523 34.8353 42 35.283 42 35.8353Z" fill="#9ABDFF"/>
<path fill-rule="evenodd" clip-rule="evenodd" d="M43 35.8353C43 36.9399 42.1046 37.8353 41 37.8353C39.8954 37.8353 39 36.9399 39 35.8353C39 34.7308 39.8954 33.8353 41 33.8353C42.1046 33.8353 43 34.7308 43 35.8353ZM41 36.8353C41.5523 36.8353 42 36.3876 42 35.8353C42 35.283 41.5523 34.8353 41 34.8353C40.4477 34.8353 40 35.283 40 35.8353C40 36.3876 40.4477 36.8353 41 36.8353Z" fill="black"/>
<path d="M66 62.8353C66 63.3876 65.5523 63.8353 65 63.8353C64.4477 63.8353 64 63.3876 64 62.8353C64 62.283 64.4477 61.8353 65 61.8353C65.5523 61.8353 66 62.283 66 62.8353Z" fill="#9ABDFF"/>
<path fill-rule="evenodd" clip-rule="evenodd" d="M67 62.8353C67 63.9399 66.1046 64.8353 65 64.8353C63.8954 64.8353 63 63.9399 63 62.8353C63 61.7308 63.8954 60.8353 65 60.8353C66.1046 60.8353 67 61.7308 67 62.8353ZM65 63.8353C65.5523 63.8353 66 63.3876 66 62.8353C66 62.283 65.5523 61.8353 65 61.8353C64.4477 61.8353 64 62.283 64 62.8353C64 63.3876 64.4477 63.8353 65 63.8353Z" fill="black"/>
<path d="M37 70.8353C37 71.9399 36.1046 72.8353 35 72.8353C33.8954 72.8353 33 71.9399 33 70.8353C33 69.7308 33.8954 68.8353 35 68.8353C36.1046 68.8353 37 69.7308 37 70.8353Z" fill="#254B95"/>
<path d="M42 69.3353C42 70.1638 41.3284 70.8353 40.5 70.8353C39.6716 70.8353 39 70.1638 39 69.3353C39 68.5069 39.6716 67.8353 40.5 67.8353C41.3284 67.8353 42 68.5069 42 69.3353Z" fill="#254B95"/>
<path d="M42 64.3353C42 65.1638 41.3284 65.8353 40.5 65.8353C39.6716 65.8353 39 65.1638 39 64.3353C39 63.5069 39.6716 62.8353 40.5 62.8353C41.3284 62.8353 42 63.5069 42 64.3353Z" fill="#254B95"/>
<path d="M32 72.8353C32 73.3876 31.5523 73.8353 31 73.8353C30.4477 73.8353 30 73.3876 30 72.8353C30 72.283 30.4477 71.8353 31 71.8353C31.5523 71.8353 32 72.283 32 72.8353Z" fill="#254B95"/>
</g>
<defs>
<filter id="filter0_d_31_1175" x="0" y="0" width="100" height="100" filterUnits="userSpaceOnUse" color-interpolation-filters="sRGB">
<feFlood flood-opacity="0" result="BackgroundImageFix"/>
<feColorMatrix in="SourceAlpha" type="matrix" values="0 0 0 0 0 0 0 0 0 0 0 0 0 0 0 0 0 0 127 0" result="hardAlpha"/>
<feOffset dx="4" dy="4"/>
<feColorMatrix type="matrix" values="0 0 0 0 0 0 0 0 0 0 0 0 0 0 0 0 0 0 0.2 0"/>
<feBlend mode="normal" in2="BackgroundImageFix" result="effect1_dropShadow_31_1175"/>
<feBlend mode="normal" in="SourceGraphic" in2="effect1_dropShadow_31_1175" result="shape"/>
</filter>
</defs>
</svg>
